/* XPM */
static char *e2e2190797db463ea73521f8a49cd4c7S5pV9cDZQsMDAUxh[] = {
/* columns rows colors chars-per-pixel */
"64 64 212 2 ",
"   c #060404",
".  c #0B0404",
"X  c #050801",
"o  c #0E0804",
"O  c #0A040A",
"+  c #050908",
"@  c #0C0C0E",
"#  c #04060B",
"$  c #130501",
"%  c #190403",
"&  c #120903",
"*  c #150D0C",
"=  c #1B0A08",
"-  c #1C110B",
";  c #14110B",
":  c #0B0D10",
">  c #080F18",
",  c #100E15",
"<  c #0B131D",
"1  c #151312",
"2  c #1B1512",
"3  c #1E1A14",
"4  c #14161B",
"5  c #230F0A",
"6  c #241206",
"7  c #23120B",
"8  c #2A140A",
"9  c #29190D",
"0  c #371506",
"q  c #3A1506",
"w  c #351509",
"e  c #3A150A",
"r  c #371B0E",
"t  c #3C1A0B",
"y  c #221C15",
"u  c #221917",
"i  c #341C13",
"p  c #3C1C13",
"a  c #381513",
"s  c #202117",
"d  c #282117",
"f  c #25221A",
"g  c #292219",
"h  c #0D2233",
"j  c #0B253C",
"k  c #0E293F",
"l  c #142C3D",
"z  c #2D2920",
"x  c #41170C",
"c  c #461C0D",
"v  c #491D0D",
"b  c #441E10",
"n  c #491E10",
"m  c #471613",
"M  c #44200F",
"N  c #4D230E",
"B  c #51260F",
"V  c #432212",
"C  c #4D2410",
"Z  c #4E2912",
"A  c #512611",
"S  c #522B14",
"D  c #5F311B",
"F  c #722F0C",
"G  c #75330F",
"H  c #79340E",
"J  c #652F17",
"K  c #6E2F14",
"L  c #642F19",
"P  c #792F14",
"I  c #742D16",
"U  c #663216",
"Y  c #6D3214",
"T  c #663219",
"R  c #6A331A",
"E  c #653B1C",
"W  c #6D3B1E",
"Q  c #743313",
"!  c #7A3413",
"~  c #723C16",
"^  c #7B3815",
"/  c #72341A",
"(  c #793319",
")  c #733D1A",
"_  c #783C1B",
"`  c #6D3E21",
"'  c #613420",
"]  c #753822",
"[  c #69401C",
"{  c #7D4316",
"}  c #76421B",
"|  c #7B421B",
" . c #754519",
".. c #734221",
"X. c #7F4524",
"o. c #7D4A22",
"O. c #75482A",
"+. c #7E5631",
"@. c #0E2741",
"#. c #0D2B44",
"$. c #0E2F4E",
"%. c #072743",
"&. c #122C44",
"*. c #102F4D",
"=. c #0E304E",
"-. c #0F3346",
";. c #11304D",
":. c #0E2F51",
">. c #102E50",
",. c #0E3151",
"<. c #0F3759",
"1. c #113252",
"2. c #123957",
"3. c #153857",
"4. c #143956",
"5. c #113659",
"6. c #143758",
"7. c #14375A",
"8. c #13395A",
"9. c #12395A",
"0. c #15395A",
"q. c #153959",
"w. c #163C5A",
"e. c #123A5D",
"r. c #153A5D",
"t. c #163C5E",
"y. c #14395B",
"u. c #183B5C",
"i. c #133B61",
"p. c #81370F",
"a. c #813A16",
"s. c #824413",
"d. c #8C4614",
"f. c #834916",
"g. c #83441D",
"h. c #8D441B",
"j. c #844C1F",
"k. c #8A4B1B",
"l. c #8F4B11",
"z. c #974917",
"x. c #9C4B15",
"c. c #93441B",
"v. c #95491B",
"b. c #9A4B19",
"n. c #84561E",
"m. c #875A1E",
"M. c #8D5C1E",
"N. c #8C5617",
"B. c #985F1E",
"V. c #A15F16",
"C. c #A05E19",
"Z. c #9E6217",
"A. c #9D621B",
"S. c #9F6A1B",
"D. c #90601A",
"F. c #A26316",
"G. c #A2631B",
"H. c #A26A1D",
"J. c #AC721F",
"K. c #A87B1F",
"L. c #B6781C",
"P. c #854421",
"I. c #884A21",
"U. c #8A5724",
"Y. c #8B5A22",
"T. c #8B5E2A",
"R. c #825223",
"E. c #925624",
"W. c #925D21",
"Q. c #8C5635",
"!. c #956224",
"~. c #9B6424",
"^. c #9C6922",
"/. c #93672D",
"(. c #A36522",
"). c #A26A24",
"_. c #AC6E21",
"`. c #A57425",
"'. c #AC7526",
"]. c #AD7D26",
"[. c #A5742D",
"{. c #AB7529",
"}. c #A7782F",
"|. c #AD7A2A",
" X c #B2792B",
".X c #B67C25",
"XX c #AC7A33",
"oX c #AD812C",
"OX c #BE8C23",
"+X c #BC8B2D",
"@X c #B68429",
"#X c #BD952D",
"$X c #AC8838",
"%X c #B88735",
"&X c #C2881E",
"*X c #C48822",
"=X c #C48C2C",
"-X c #C78829",
";X c #C5912A",
":X c #C88C34",
">X c #D08533",
",X c #C39535",
"<X c #D89B3E",
"1X c #DB9D43",
"2X c #D59D47",
"3X c #CFA64E",
"4X c #D1A54C",
"5X c #DBB84E",
"6X c #C3A450",
"7X c #C7A954",
"8X c #DDBB55",
"9X c #DAB859",
/* pixels */
"$.$.$.$.*.$.=.=.$.$.$.$.$.$.$.>.:.,.>.$.$.$.$.$.$.$.$.=.$.$.$.$.$.$.$.$.$.=.$.$.$.$.$.$.$.$.$.*.*.*.$.$.$.$.$.$.$.$.$.$.:.:.:.*.",
"$.$.$.$.$.=.=.=.$.$.$.$.$.$.$.:.,.,.>.$.$.$.$.$.$.$.=.,.=.$.$.$.$.$.$.$.,.,.$.$.$.$.$.$.$.,.,.,.=.=.$.$.$.$.$.$.$.$.$.$.,.,.,.*.",
"$.$.$.=.,.,.,.,.$.$.$.$.$.$.$.,.2.8.,.$.$.$.$.$.$.=.5.5.,.$.$.$.$.$.$.$.,.,.$.$.$.$.$.$.=.0.e.8.=.=.$.$.$.$.$.$.$.$.$.$.7.0.,.*.",
"$.$.$.,.8.0.1.,.$.$.$.$.$.$.$.,.,.,.,.$.$.$.$.$.,.,.5.<.,.$.$.$.$.$.=.,.e.e.$.$.$.$.$.$.=.,.,.,.,.$.$.$.$.$.$.$.$.$.$.$.1.,.,.*.",
"$.$.$.:.,.,.*.*.$.$.$.$.$.$.$.$.$.$.$.:.=.=.:.,.0.0.:.$.$.$.*.*.$.=.8.e.,.1.$.$.$.$.$.$.$.$.$.$.$.$.$.$.$.,.$.$.;.=.,.*.$.$.$.$.",
"$.$.$.$.,.,.$.$.,.,.,.=.$.$.$.$.$.$.$.:.=.,.,.,.,.,.,.$.$.$.$.$.$.=.,.,.=.=.$.$.=.=.$.$.$.$.$.$.$.$.$.$.$.*.1.,.0.3.1.*.$.$.$.$.",
"$.$.$.$.*.:.,.,.,.0.0.,.$.$.$.$.$.$.$.,.<.5.1.$.$.$.$.$.$.$.,.=.=.$.:.$.=.=.$.$.=.=.1.=.$.$.$.$.$.$.$.=.=.,.0.0.,.,.=.*.$.$.$.$.",
"$.$.$.$.*.,.7.0.0.,.1.$.$.$.$.$.$.$.$.,.<.5.$.$.$.$.$.:.,.,.8.2.=.$.$.$.=.=.$.$.=.6.6.=.$.$.$.$.>.*.$.,.6.8.,.,.=.=.=.,.=.=.=.$.",
"$.$.$.$.=.=.=.,.,.$.*.$.$.$.$.$.$.=.q.w.=.=.$.$.$.$.,.,.t.e.,.:.:.*.$.$.$.=.$.$.$.$.$.$.$.$.*.>.:.>.$.=.=.=.=.$.$.,.,.,.w.w.,.$.",
"$.$.$.$.,.,.,.,.$.$.$.,.,.,.,.$.$.$.$.=.=.$.*.$.$.$.$.:.,.,.:.>.>.>.$.$.,.,.$.$.$.$.$.$.$.$.*.,.,.,.=.$.$.=.$.$.$.>.>.>.$.=.=.*.",
"$.$.$.,.t.u.1.;.*.$.,.,.,.t.0.,.$.$.$.$.$.*.*.$.$.$.$.*.$.=.$.$.,.,.=.$.t.i.$.$.$.$.$.$.$.*.$.,.t.w.,.$.*.$.$.$.$.,.,.,.$.$.*.*.",
"$.$.$.$.,.,.$.*.*.=.0.7.,.,.,.=.=.=.$.$.$.$.*.*.$.$.*.*.$.=.=.,.0.t.1.$.,.,.$.$.$.$.$.$.$.$.$.=.,.=.=.$.$.,.,.,.,.e.e.8.,.*.$.$.",
"$.$.$.$.$.$.$.$.$.$.,.=.=.$.$.,.,.,.,.$.$.$.$.$.$.*.*.$.$.=.:.,.,.1.,.$.$.$.*.*.*.$.$.$.$.$.$.$.$.$.$.$.$.,.8.8.,.,.,.1.=.$.$.$.",
"$.$.$.$.$.$.$.$.=.=.$.$.$.$.$.,.e.e.:.$.$.=.1.=.=.$.$.,.,.,.,.:.$.:.$.$.$.$.=.=.=.,.=.=.$.$.$.=.$.$.$.$.$.:.,.,.$.$.*.$.$.$.=.$.",
"$.$.$.$.$.=.=.=.=.$.*.$.$.$.$.;.,.,.$.$.=.1.3.2.=.$.>.,.0.8.,.*.*.*.$.$.$.$.,.,.=.3.1.$.$.$.=.=.,.,.$.$.$.*.=.=.*.$.$.,.5.1.=.$.",
"$.$.=.=.,.,.8.8.,.>.$.=.$.$.:.>.*.$.$.*.#.=.,.,.,.$.:.,.,.,.,.:.,.,.,.,.,.,.e.8.,.,.$.*.>.$.*.=.8.e.,.>.:.$.$.$.$.$.$.$.,.$.$.$.",
"$.$.1.0.t.0.1.1.=.*.*.$.:.:.,.$.< : : : < l -.=.=.=.=.=.=.=.=.=.=.=.=.=.=.=.,.,.;.;.&.< 1 , * 4 &.,.:.*.*.$.$.$.$.$.$.$.$.$.$.$.",
"$.$.$.$.,.,.$.*.=.,.,.:.:.=.&.2 ..k.I.Q.* # O                                   .   # & +.I.k.o.- l *.$.=.$.$.q.=.$.$.$.$.$.$.$.",
"$.$.$.$.*.$.,.,.,.e.i.,.:.&.4 o._.J..X& b T Y R R R R R R T R R R R R R R R R R U R U p % oXL.J.o.u &.,.,.$.$.=.=.$.$.$.$.$.$.$.",
"$.$.$.$.=.=.$.$.$.$.$.:.*.#.2 { J.L.%X& w q q q q q q q q q w w q w w w w w w w w 0 e w % $XL.'.f.3 &.>.:.$.$.$.$.$.$.$.=.=.=.$.",
"$.$.$.,.e.8.,.:.$.$.$.,.1.*.3 [.*X=X6 0 P.h.c.h.h.h.F Y G h.h.v.z.v.v.v.v.v.z.v.c.h.c.k.a 6 +XOX|.f &.>.:.=.$.$.$.$.$.=.6.1.=.$.",
"$.$.$.=.,.,.:.:.$.$.$.,.0.1.s |.*X+XO w Q H ^ ^ ^ ! Q Q Q ! p.z.x.z.z.x.x.x.b.v.! ^ ! Q t   @X*X].f &.1.,.1.=.$.$.$.$.$.=.$.$.$.",
"$.$.$.$.=.$.*.*.,.,.,.,.,.$.s |.=X#X. w T Y R T T R T Y Y Y R / Q Q ! ! Q Q Q Q Y Y T T x   OX=XoXg &.,.0.q.=.$.=.,.,.$.=.$.$.$.",
"$.$.$.$.$.$.$.,.0.0.,.:.*.#.f 6X8X8X. r c v v v v v v v v v v v v v c b b b b b b b n v m X 9X5X7Xz &.$.,.1.=.$.,.e.8.=.=.$.$.$.",
"$.$.$.$.$.$.$.=.,.,.,.:.*.#.f 6X8X8X. Y h.h.h.h.h.h.h.h.h.h.h.h.h.h.c.c.c.c.c.c.c.c.c.h.I . 9X8X7Xz &.$.:.=.$.$.,.,.,.$.$.$.$.$.",
"$.$.$.$.$.$.$.$.$.$.$.$.*.#.s oX=X,X. / ^ ! ^ ^ ^ ^ ^ ^ ^ ^ ^ ^ ! ^ z.x.x.x.x.x.x.b.a.^ ] . ,X;XoXg &.=.:.$.$.$.$.=.$.$.$.$.$.$.",
"$.$.$.$.$.$.,.,.$.$.$.$.,.$.y K.&X;X. / ! ! ! Q Q Q ! ! ! ! Q Q Q Q ! ! P Q ( ( / ! H H / . +X&X].d &.=.$.*.=.=.=.*.=.,.,.$.$.$.",
"$.$.$.$.$.,.0.0.=.$.$.,.t.3.f |.=X=X. / Q ^ ! Q Q ! ^ ^ ( ( ^ ^ ^ ^ ! _ ^ H Q Q ! ^ ^ ^ ) $ %X=XoXg &.=.*.:.,.,.,.=.,.t.t.1.=.$.",
"$.$.$.$.,.,.,.,.$.$.$.,.,.$.3 M.G.H.  i t t t e q x i $ . $ . . . . .   o i t t t t t e p   ^.F.D.y &.=.*.,.t.t.8.$.=.,.,.$.$.$.",
"$.$.$.,.,.,.$.$.$.$.$.,.;.&.3 M.(.H.  q L J U J U D % T.!./.[.{.{.`.B.E.m.% J U T U T L t . ~.G.W.y &.=.*.>.,.,.,.$.$.$.$.$.$.$.",
"$.$.$.,.5.5.,.$.$.$.$.=.$.j 2 M.G.^.7 V A A A A B Z . |.2X4X4X4X3X4X:X>X.Xo C A B B A A V 7 ~.G.W.y ;.1.*.$.$.=.=.$.$.$.$.$.$.$.",
"$.$.$.$.,.,.:.:.$.$.$.$.$.j 2 U.A.A.}.|.|.|. X X|.XX. 2XH.S.^.!.!.S.F.F.<X& [. X X|.|. X|.XXG.(.W.y &.:.*.$.$.$.$.$.$.$.=.1.=.$.",
"$.$.$.$.:.:.$.$.$.$.$.=.=.#.2  .f.f.l.k.k.k.k.k.k.j.  1XV.A.U.9 7 n.A.C.1X& j.k.k.k.k.k.k.k.d.g.} 2 &.:.*.$.$.$.$.$.$.$.1.6.1.$.",
"$.$.$.$.*.*.*.$.$.$.$.,.=.#.1 E } } .._ _ } } } } }   =XA.Y.i +   9 m.F.@Xo ..} } } } } } } { ..W 2 &.:.*.,.,.,.=.$.$.$.=.1.=.$.",
"$.$.$.$.$.$.$.$.*.:.,.,.$.j : * 8 6 7 - - - - 5 - 7   =XA.Y.8 + X - n.G..Xo - - 7 7 - 7 ; 8 6 7 - : &.,.;.,.0.0.,.$.$.$.$.$.$.$.",
"$.$.$.$.*.*.*.*.*.,.t.0.,.#.h * E  .o.o i t t t r t . :XA.A.T.* * Y.A.G. Xo r t t t t p   O.| ` - h $.,.;.t.,.,.,.$.$.$.$.$.$.$.",
"$.$.$.$.=.,.,.$.*.,.:.=.=.$.j 1 n.B.(.$ ' / R / Y R . J.A.A.Y.* * U.A.A.N.o R R / / R E $ !.V.N.2 j =.,.$.=.=.=.$.$.$.$.$.$.$.$.",
"$.$.$.,.e.t.e.,.*.,.:.=.=.*.h 2 `.F.).& T ! Q ! ! / .  X~.A.~.!.A.A.A.G.E.. R / / / c t O ^.F.m.- h *.;.=.$.$.$.$.$.$.=.$.$.$.$.",
"$.$.$.$.$.=.=.$.$.$.$.$.,.;.j 1 `.G.).o V N N v c c t w [ ) ) ~ ~ ~ ~ ] 6 p c c c b c c . ~.Z.|.y @.$.$.$.*.*.*.*.1.,.e.8.1.=.$.",
"$.$.$.$.$.$.=.$.$.$.$.1.,.;.j 1 `.G.).& X.h.h.Q Y Y K R 8 7 7 7 7 7 7 7 R Y Y Y Q Q Q R . ~.A.|.y @.$.$.$.$.,.$.1.e.5.,.=.=.$.$.",
"$.$.$.$.$.$.$.$.$.$.$.6.,.;.j 1 `.G.).$ R Q Q Q Q ! ! Q T T Y Y Y Y Y U ! ! ! Q Y Q Q T o !.A.|.y j =.$.$.,.,.,.:.,.,.*.*.$.$.$.",
"$.$.$.$.$.$.$.$.$.=.1.:.,.=.j 1 N.A.).$ p b c c U Q Q Q Q Q Q Q Q Q Q P Q Q K v c c c t . !.Z.{.y @.=.$.$.,.0.0.,.;.=.$.:.$.$.$.",
"$.$.$.$.*.$.,.,.1.:.*.$.,.$.&.1 R.A.).7 p b V V C N N N N C C C C C C C C N N M V V n M 5 !.Z.Y.2 @.=.$.$.1.1.=.$.$.$.$.$.$.$.$.",
"$.$.$.$.*.,.8.e.e.,.$.*.,.$.&.1 ) ~.A.^.H.'.'.'.'.'.'.'.'.'.'.'.'.'.'.'.'.'.'.'.'.'.{.M.n.A.A. .2 j =.$.$.=.=.$.$.$.$.$.$.$.$.$.",
"$.$.=.=.*.$.,.:.,.$.*.*.,.$.j 1 W { s.| | { { | | | | { { { { { { { { { { { { } } | s.g.s.| f.` 2 #.=.$.$.$.$.$.$.$.$.$.3.1.=.$.",
"$.1.3.1.>.*.*.*.*.$.,.,.,.$.j @ Z o.P.g.g.h.g.g.g.g.g.g.g.g.g.P.P.P.g.g.g.g.P.P.g.P.g.P.f.X.o.S ; k =.$.$.:.,.:.:.$.$.$.$.=.$.$.",
">.:.,.,.:.$.*.*.$.,.0.t.,.=.*.h : . .   X X X . . . . . . .   X X X   . . .         . . . . o @ h %.=.$.$.,.t.t.,.$.$.$.$.$.$.$.",
">.:.,.,.,.=.$.*.*.:.,.,.=.$.*.$.%.j j h h k k k j j j j j j j k k k j j j j k k k j j j j j j k *.$.$.$.$.,.,.,.=.$.$.$.$.$.$.$.",
">.:.,.8.8.,.=.*.*.:.:.:.$.$.=.*.*.$.%.j %.;.*.*.@.@.k k @.@.@.$.$.*.@.k j j =.=.=.%.k @.&.*.*.*.;.$.$.$.$.$.$.$.$.$.$.$.$.$.$.$.",
"$.$.$.,.,.$.$.=.:.,.1.:.$.$.$.,.,.,.$.$.$.=.=.=.=.=.=.,.8.8.5.;.*.*.:.:.=.=.*.*.*.$.,.,.,.$.$.=.=.,.,.=.=.$.$.$.$.*.$.=.=.=.=.$.",
"$.$.$.$.=.*.$.,.,.0.0.,.$.$.$.,.8.8.,.>.$.$.=.:.,.,.,.:.,.,.,.=.$.$.$.$.,.,.$.$.$.=.8.0.,.$.$.$.=.0.0.,.=.$.$.$.$.:.:.,.0.1.$.$.",
"$.$.$.$.,.,.,.,.,.,.,.=.$.$.$.$.,.,.$.>.1.,.,.,.7.7.,.$.$.>.$.$.=.=.,.,.e.e.$.$.$.=.,.,.:.$.$.$.$.,.,.=.$.$.$.$.$.,.0.e.,.$.$.$.",
"$.$.$.:.,.8.8.,.$.$.$.$.$.$.$.*.=.=.*.,.0.e.8.,.,.,.=.=.=.=.=.$.=.=.8.e.,.1.$.$.$.$.,.:.>.*.$.$.$.:.:.$.*.$.$.$.$.$.=.=.=.$.$.$.",
"$.$.$.=.6.,.$.$.*.,.:.;.;.=.,.$.$.$.$.$.$.=.=.,.,.=.$.$.$.=.,.,.,.$.=.=.$.$.$.$.$.=.1.1.>.*.$.$.$.$.*.=.=.=.=.$.*.>.*.*.$.$.$.$.",
"$.$.$.$.=.=.$.$.*.,.:.,.,.t.t.1.$.$.$.$.$.$.$.*.$.=.$.$.=.1.t.t.,.$.$.$.$.$.$.$.$.=.0.0.,.,.$.$.$.$.*.,.3.0.=.$.*.>.$.=.=.$.$.$.",
"$.$.$.$.$.$.$.$.*.1.u.t.t.,.,.$.$.$.$.$.$.$.$.*.=.,.,.=.$.$.,.,.,.$.$.$.$.$.$.$.$.=.,.,.,.,.,.,.,.$.*.=.=.=.=.$.*.>.:.,.,.=.=.$.",
"$.$.$.$.$.=.=.,.*.,.,.,.$.$.*.$.$.$.1.=.=.$.$.,.8.e.e.=.$.$.,.,.=.=.$.$.,.,.,.=.$.$.,.:.>.:.,.0.0.1.$.=.=.=.=.$.*.*.,.8.0.1.=.$.",
"$.$.$.$.=.=.,.8.=.$.$.*.*.*.=.$.$.=.3.2.=.$.*.$.=.,.,.$.$.$.*.*.$.=.1.,.e.i.2.=.$.*.$.$.$.$.$.=.=.$.$.$.$.*.=.=.*.$.$.,.=.$.$.$.",
"$.$.$.$.>.:.:.1.=.$.$.$.$.$.$.$.$.$.=.,.=.$.*.$.$.$.$.$.$.$.$.$.$.=.5.0.,.1.=.=.$.*.$.$.$.$.$.$.$.$.$.$.$.$.,.,.$.$.$.$.$.=.$.$.",
"$.$.$.=.,.,.$.$.$.$.$.=.=.=.$.$.$.$.$.$.$.*.*.$.$.$.$.$.$.$.=.=.$.$.,.,.$.*.$.$.*.*.$.$.$.$.$.$.$.$.$.$.$.,.8.8.,.$.$.$.$.$.$.$.",
"$.$.$.,.8.3.=.=.$.$.$.6.3.=.$.$.$.$.$.*.*.;.,.,.=.$.$.$.$.=.6.3.=.$.$.$.$.$.*.*.$.$.$.,.,.,.$.$.$.$.$.$.$.,.,.,.,.$.$.$.$.$.$.$.",
"$.$.$.$.,.=.$.$.$.$.$.=.=.$.$.$.$.$.$.$.$.1.0.8.,.$.*.$.$.$.=.=.$.$.$.$.$.$.$.$.$.$.$.,.e.8.=.$.$.$.$.$.$.$.$.$.$.$.$.$.$.$.$.$.",
"$.$.$.$.$.$.=.$.$.=.=.$.$.$.$.$.$.$.$.$.$.$.1.,.,.$.$.$.$.=.=.$.$.$.$.$.$.$.$.$.$.$.*.:.,.,.$.$.$.$.$.$.$.$.$.$.$.$.$.$.$.$.$.$.",
"$.$.$.$.$.$.$.$.$.$.$.$.$.$.$.$.$.$.$.$.$.$.$.:.:.*.$.$.$.$.$.$.$.$.$.$.$.$.$.$.$.$.*.*.$.$.$.$.$.$.$.$.$.$.$.$.$.$.$.$.$.$.$.$."
};
