/* XPM */
static char *_6f727365a9e4641c8fce98c57209480iwnrDRWkHrvSk8Ks[] = {
/* columns rows colors chars-per-pixel */
"64 64 194 2 ",
"   c #050504",
".  c #0C0405",
"X  c #060907",
"o  c #0C0A06",
"O  c #0C0608",
"+  c #06090D",
"@  c #0A0D0B",
"#  c #05060A",
"$  c #130605",
"%  c #190707",
"&  c #140907",
"*  c #1A0807",
"=  c #140B0A",
"-  c #190D0A",
";  c #07170A",
":  c #0B140A",
">  c #071A0B",
",  c #0B1B0C",
"<  c #13150A",
"1  c #1B120C",
"2  c #121D0C",
"3  c #060C13",
"4  c #090D14",
"5  c #140F14",
"6  c #061117",
"7  c #0B1115",
"8  c #0F1913",
"9  c #07121B",
"0  c #09141C",
"q  c #0E181C",
"w  c #131215",
"e  c #1A1516",
"r  c #101319",
"t  c #1A1718",
"y  c #121D12",
"u  c #200706",
"i  c #230807",
"p  c #2E0906",
"a  c #240708",
"s  c #2A0708",
"d  c #240A09",
"f  c #2B0A08",
"g  c #330A07",
"h  c #3C0C07",
"j  c #320B08",
"k  c #3A0C09",
"l  c #26120B",
"z  c #2C1209",
"x  c #3A1107",
"c  c #341509",
"v  c #3C100A",
"b  c #33190C",
"n  c #3D1C0B",
"m  c #201414",
"M  c #2E1D17",
"N  c #3A1C10",
"B  c #0D220B",
"V  c #13240D",
"C  c #19250F",
"Z  c #142B0D",
"A  c #192D0E",
"S  c #1B340C",
"D  c #1F390D",
"F  c #162310",
"G  c #192111",
"H  c #162B10",
"J  c #1C2B11",
"K  c #1E3410",
"L  c #28250D",
"P  c #24360C",
"I  c #223B0D",
"U  c #293E0F",
"Y  c #2B221A",
"T  c #233612",
"R  c #233B12",
"E  c #2C3C11",
"W  c #343C11",
"Q  c #323113",
"!  c #071723",
"~  c #091622",
"^  c #071924",
"/  c #091A25",
"(  c #071E2C",
")  c #091F2D",
"_  c #0A1F30",
"`  c #07202E",
"'  c #0A202E",
"]  c #072231",
"[  c #0A2333",
"{  c #0B2835",
"}  c #0B2738",
"|  c #0C283A",
" . c #440D06",
".. c #4B0E04",
"X. c #410E0A",
"o. c #431207",
"O. c #4D1006",
"+. c #421E0B",
"@. c #4E1C0D",
"#. c #41130B",
"$. c #531206",
"%. c #581407",
"&. c #551508",
"*. c #591609",
"=. c #541A0B",
"-. c #5B190A",
";. c #491E11",
":. c #601807",
">. c #631A09",
",. c #6B1E0A",
"<. c #45210C",
"1. c #4B230C",
"2. c #52260D",
"3. c #552A0E",
"4. c #53300E",
"5. c #5E390C",
"6. c #4A2210",
"7. c #6F2B07",
"8. c #63220C",
"9. c #66220B",
"0. c #6D220B",
"q. c #742307",
"w. c #7A2507",
"e. c #7D2606",
"r. c #7B2407",
"t. c #742309",
"y. c #792609",
"u. c #782409",
"i. c #722C0C",
"p. c #7F2A09",
"a. c #7B2C0D",
"s. c #7B3607",
"d. c #7F3A07",
"f. c #7E3B09",
"g. c #732E11",
"h. c #653911",
"j. c #713919",
"k. c #27410E",
"l. c #28420F",
"z. c #2D490D",
"x. c #33470E",
"c. c #324D0D",
"v. c #394F0B",
"b. c #33510C",
"n. c #3D530D",
"m. c #274111",
"M. c #2F4910",
"N. c #2D4511",
"B. c #334C12",
"V. c #3B5414",
"C. c #45520F",
"Z. c #49530E",
"A. c #4A5F10",
"S. c #475C14",
"D. c #734E16",
"F. c #6F5413",
"G. c #775418",
"H. c #7C541A",
"J. c #576C14",
"K. c #812A0A",
"L. c #842C0A",
"P. c #882F0C",
"I. c #833C07",
"U. c #80300D",
"Y. c #8A340D",
"T. c #813B09",
"R. c #92380E",
"E. c #8A3511",
"W. c #913610",
"Q. c #983D13",
"!. c #874006",
"~. c #86410A",
"^. c #8B460C",
"/. c #8D490D",
"(. c #904B07",
"). c #924D0C",
"_. c #95520D",
"`. c #9A550E",
"'. c #9D5A0E",
"]. c #8A471E",
"[. c #844412",
"{. c #914415",
"}. c #9D4412",
"|. c #934E12",
" X c #8B5D16",
".X c #975310",
"XX c #9A5611",
"oX c #945E13",
"OX c #9D5C13",
"+X c #A74812",
"@X c #A34512",
"#X c #A25E13",
"$X c #9B6014",
"%X c #A46015",
/* pixels */
"( ' ( ( ( ' ( ( ' ( ( ' ' ( ( ( ( ' ( ( ' ( ( ) ( ( ( ( ' ' ( ' ( ( ( ( ( ' ( ' ' ' ' ( ( ( ( ( ( ( ( ' ( ) ' ( ( ( ( ' ( ( ( ( ",
"( ( ( ' ' ( ( ' ' ' ( ( ' ' ( ( ( ( ' ' ' [ { [ ' ( ( ( ( ( ( ( ( ( ' ( ( [ [ ' ( ' ( ( ( ( ( ( ( ( ( ( ' ( ( ( ( ( ' ( ( ( ( ( ",
"( ( ' [ { [ ( ' ( ( ' ' ' ' ( ( ) ( ) ' ' ( ' ' ( ( ( ( ' [ ' ( ' ( ( ( ' [ [ ( ' ' ( ( ( [ [ ( ( ' ( ( ( ( ' ( ( [ [ ' ( ( ' ( ",
"( ( ( ` ' ( ( ' ' [ [ ( ' ' ( ' [ [ ) ( ' ( ' ( ( ( ( ( [ { [ ( ( ' ( ( ( ' ( ' ' ' ' ' ( [ [ ( ( ' ( ' ' ( ( ( ' [ [ ' ( ( ( ( ",
"( ( ( ( ( ( ( ' [ [ [ ' ' ' ( ( [ ' ( ( ' ( ( ( ( ( ( ( ' ' ( ( ' ' ' ( ' ' ' ' ( ' ' ' ' ( ( ( ( ' ( ( ' ( ' ( ( ' ( ' ( ( ( ( ",
"( ( ( ( ' ' ( ( ( ( ' ' ' ' ( ' ' ' ) ( ) ' ' ( ' ' { [ ( ( ( ( ' ' ( ( ' ' ' ' ( ' ' ' ' ' ( ( ( ' ' _ { { ' ( ( ' ' ' ' ( ( ( ",
"( ( ( ' [ { [ ' ( ( ' ( ( ' ( ( ' ' ' ) ' ( ' ( ' ' [ ' ' ) ( ) ( ( ( ( ' ' [ [ ' ' ' ' ' ( ' ( ( ' [ [ [ ' ' ( ' ' ' { [ ' ( ( ",
"' ( ( ' ' ' ' ( ' ' ( ( ' ' [ [ ' ' ' ( [ { [ ( ( ( ( ' ) / @ @ / ( ( ( ' ' ' ( ( ' ( ' ' ( ( ( ( ( ' ' ' ( ' ( ( ( ' ' ' ( ( ( ",
"( ( ( ' ' ( ( ' ' ' ( ( ' ( { [ ' ( ' ' ( ` ( ( ( ( ( ' ( 1 ].g.* / ( ( ' ( ( ( ' ' ' ' [ [ ' ( ( ' ( ' ' ( ' ( ' ' [ ' ( ( ( ' ",
"( ' ' ' ( ( ( ' ' ' ( ) ) ) ) ( ( ( ' ( ( ( ( ' ' ' ' ( ' 1 {.a.* / ' ' [ [ ( ( ' ' ' ( [ [ ' ( ( ' ( [ { ( ' ( ' [ [ ` ( ( ( ( ",
"( ' ( ( [ { [ ' { { ' ' ' ( ' ( ' ' ' ( ( ' ( ' ' ( ( / O g.}.L.0.= / ' [ [ ' ( ( ' ' ' ' ( ( ' ( ' ( [ [ ( ' ( ' ' ( ( ( ' ' ( ",
"' ' ' ( ( ' ( ( ' ' ( ( [ { ' ' ' ' ' ( ' ' ' ' [ { ( / . U.}.K.y.- / ( ' ' ( ( ) ( ' ( ( ( ' ( ( ( ( ( ' ' ' ( ' ' [ [ ' ' ' ( ",
"' ' ' ( ( ( ( ' ( ' ' ' ' ( ( ' ' ' ' ' ' ' ' ' ( ( ) 5 =.a.P.a.y.#.= ) ( ' ' ( 7 / ( ( ' ( ( ' ' [ [ ' ' ' ' ( ' ' ` ( ( ( ' ( ",
"( ( ( ( ( ( ( ' ( ( ( ' ' ) ( ( ' ' [ [ [ ' ' ( ' ' / * w.e.e.e.e.$.$ ) ' ' ) 7 j.M / ( ( ( ' ' ' [ ' ' ' ) ' ( ( ( ( ( ' ' ' ( ",
"( ' ' ( ( ' ' ' ' ' ( ' ' ' ( ' ( ( ( ( ( ' ' ( ' / 5 8.}.y.:.r.e.0.o.@ / ( ) 4 {.N ~ ( ( ( ' ( ( ( ( ( ' [ { ' ( ( ( ( ( ' ' ( ",
"( ' ' [ [ [ [ ' ( ' [ { ' ' ( ( ( ' ( ' ' ' ' ( ' ~ - K.+Xy.%.u.e.y.&.. / ' r ;.}.g.m / ' ' ' ( ( ( ( ' ' ' ' ( ' ' ' ' [ [ ' ( ",
"( ( ' [ [ ( ' ' ( ( [ [ ' ' ( ' ' ( ' ' ' [ [ ( / e @.W.R.q.$.>.u.y.,.f 7 ) = 8.@XY.z ~ ( ( ' ' ( ( ( ( ' ' ' ( ( ( ' ' [ [ ' ( ",
"( ( ( ( ' ' ( ' ' ( ' ( ' ' ( ( ( ' ( ) 0 ) ( ( 0 d y.Y.w.t.$.O.-.u.w.O.f 7 b a.Q.L.f ~ ) ( ( ' ' ' ( ' ' ' ) ( ( ( ' ( ( ( ( ( ",
"( ( ( ( ( ( ( ( ( ( ( ' ' ' ( ( ( ) / q , 0 ) ) e +.t.u.y.>.$.....>.u... .. 9.Q.K.e.@.e / ( ( ( ( ( ( ( { } [ ( ( ( ( ' ' ( ( ( ",
"( ( ( ( ( ( ' ' ' ( ( ( ( ' [ | [ ( 9 : A @ ) / l 0.q.,.t..... .....,...k d 9.E.t.y.w.z ~ ( ( { { ( ' ' ( ( ( ( ( ( ( ( ( ( ( ( ",
"( ( ' ( ( ( ( ' ' [ [ [ ' ' ( ) ( / 7 2 A : 0 q c ,.>.O.,.....g h ..>...$ -.q.y.$.t.0.f ~ ( ( ( ( ( ( ' ( ( ( ( ( ( [ { ' ( ( ( ",
"( ( ( ( ' ( ' ' ' [ [ [ ' ' ( ( ( 0 : A S ,   $ *.,...........h g  ...j d >.u.t.$.0.*.s r ) ( ( ' ( ( ' ( ' ' ( ' ' ' ( ' ( ( ( ",
"( ' ( ( ( ' [ [ ( ( ( ' ' ( ( ( ) q V R B.: X $ &.>.......h h  .g  .... =.y.,.$...,.%...* ~ ( / ( ( ( ( ' ' ( ( ( ' ( ( ( ( ( ( ",
"' ( ( ( ( ' [ [ ( ( ( ( ( ' ( ( 0 G c.c.c.I , & ........v o o k s s h . =.t.&... .......% ~ ` 4 ~ ( ( ( [ [ ' ( ' ( ( ( ' ( ' ' ",
"( ( ( ( ( ( ' ' ( ( ( ( ( ( ( ) ) q C I T :   d h h .. .. H A o f f s . =.$.....g f  .k $ ~ ) 7 0 ) ( ( ( ' ( ( ( ( ( ( ' ' ' ( ",
"( ( ( ( ( ( ( ( ' ( ( [ ' ( ( ) 0 C B.n.S.A   $ f g ..X.  A U o d s f . =.O. .g $ u h g $ # # V : 0 ( ' ' ' ( ( ` ' ( ' ' ' ' ( ",
"( ' ' ( ' [ [ ( ( ' [ { [ ( ( 6 J B.V.J.J.M.T X $ j  .o V Z S A o u . d  ...s $ J : j g f .   A : 0 ( ( ( ' ( ( [ { [ ' ( ( ( ' ",
"( ' ( ( ' [ [ ' ( ' ( ( ( ( ( ) q V B.A.c.z.I J & f f X H B S S o a . a  .g f . A : i p p . F S V : 0 ( ( ( ( ( ( ) ( ( ' ( ( ' ",
"( ( ' ( ( ( ( ( ( ( ( ( ' ( ) 9 , S I m.k.V.R < d i o V S B S S V &   d g f * V S V o i s . , S 2 7 / ( ( ( ) ( ' ' ( ( ( ( ' ( ",
"( ( ( ( ( ( ( ' ( ( ( ( ( ) 0 2 A J V B V C K o % u X A B Z B B A o % s s f o A N.V   % % 2 Z S A 8 ~ ( ' ' ' ( ( ( ( ' [ [ ( ' ",
"( ( ( ( ' ( ( ( ' ' ( ( ( ( 4 o : : : > ;   : X @ = , V Z S , , V V & f f $ 2 U v.U < .   : A Z S 2 9 ( ' { [ ( ( ( ( ( [ { ' ' ",
"' ( ( ' ( ( ( ' [ [ ' ( ( 0 y 2 : @   X X   ; ; , V H Z S B Z Z , V F < 1 ; : T v.U J @ @ 2 A Z Z V 8 ~ ( ) ( ( ' ( ( ( ( ) ( ' ",
"( ( ( ' ' ( ( ' ( ' ( ( ( 9 V V > ;   . $   > , Z S S S V Z S S Z Z S Z H : 2 S c.S Z V : , 2 2 : : : 9 ( ) ) ( ( ( ( ' ( ( ( ' ",
"( ( ( ' ( ( ( ( ( ' ' ( ~ Y Q Z B > ; : 1 : V Z S S Z S Z S S S S S Z K 2 2 S m.l.D A S < +   O . X 2 8 ~ ) ) ( ( ( ( ' ( ( ( ( ",
"( ( ( ( ( ( ( ( ' ' ( ' 9 4.D.W Z V B > , V S S S Z Z S S S S S S S Z K , 2 2 C 2 2 2 2 : : X . o ; Z 2 6 ( ( ( ( ' ' { [ ( ( ( ",
"( ' ' ' [ } [ ( ' ( ( / t h.#XD.W S Z B V S S S S Z S S S S S S S S S S Z : X   .   X X ; B : X ; B S L e / ( ( ' [ { ( ' ( ( ( ",
"( ( ( ' ' ' ' ) ) ( ) 4 +./.#X#XD.W W E S S S I D S S I I S I I D S I I S Z , X i . ; , , Z V , B Z E 5.+.4 ( ( ( ' ( ( ( ( ' ( ",
"( ( ' ' ' ' ( ( ( ' ) 4 +./.OXOX#X#X#XH.P P U b.z.S I b.b.I c.c.c.I c.b.I B > @ d . ; > , A S S P P D.).+.4 ( ( ' ( ( ' ( ( ( ( ",
"( ' ( ' ' ( ( ( ( ( ) 3 +./.)._.OX#X#XOX#X%XoXZ.Z.Z.Z.b.b.b.b.b.b.b.b.b.c.k.Z B > > B B S I E W H.%X%X).<.4 ( ) ' ' ' ( ( ' ' ( ",
"' ( ( ' ' ( ( ( ( ( ) 3 +.^.OXOXOXOX`._.#X#X#X$XoXoX Xn.n.n.n.n.n.n.n.n.c.c.z.I V B S E E E H.$XOX#X#X/.<.4 ( ) ' ' ' ( ' ' ' ( ",
"( ( ( ' ( ( [ [ [ ( ) 4 +.s.).OX_.).OXOXOX#X#X#X#X#X#XoXoX$XoXoXoXoXoXoXZ.n.v.v.x.x.x.F.oXoX%X%X`.OX).T.+.6 ' ' { ' ( ' ' ' ( ( ",
"( ( ( ( ( ( ' [ ' ( ( ~ 5 1.T.).OX'.#XOXOXOXOX).#X#X#X#X#X#X#X#X%X%X%X%XoXoXoXoXoXoXoXOX%X#X#X%X#X#X).1.5 ~ ) ( ' ' ( ' ' ' ' ' ",
"( ( ' ( ' ( ( ( ' ( ( ) 4 = 2.f./.OXOXOXXX).OX'.#X#X#X#X(.#X#X#X#X#X%X#X#X#X#X#X#X#X%X#X%X_.).OX#X_.!.n 6 ( ' ( ' ' ( ( [ [ ' ' ",
"( ( ( [ { [ ( ( ( ( ( ( ~ + - 3.f.!.|.OXOXXXOXOXOXOX#X#XOXOXOXOX#XOX#X#X#X).OX#X#X_.).OX#XOXXXOX).~.1.w ~ ( ( ( ' ( ( ( ' ' ( ( ",
"( ( ( ' ` ` ( ( ' ( ( ( ) 0 + - l 6.T.!./.OX_.OXOXOXOXOXOXOXOXOXOX).).#XOXOXOXOX#XXX`.OXOXOX/.!.T.3.- 6 ) ( ' ( ' ' ( ( ( ' ( ( ",
"( ( ) ( ' ' ( ( ' ' ' ( ( / 0 4 + - b b <.[.!././.).OXOXOXOXOXOXOXXX.XOXOXOXOXOX_.XXOX/.^.~.T.2.b - + ! ( ( ' [ [ ' ( ' ( ( ( ( ",
"( ( ( ( ' ( ( ( ( [ [ [ ' ( ) / 0 4 4 + . z c c 1.f.^.^.^./././.XXOXOXOX/.^.^.^.!.!.~.T.1.c b * + 4 0 ) ( ( ' [ [ ( ( ' ( ( ( ( ",
"( ( ( ( ( ( ( ( ( ( ( ' ' ( ) ( ) / ~ 6 3 3 3 + * n 1.i.7.d.I.I.^./././.T.I.s.2.+.+.n n - + 3 3 9 ! ) ( ( ( ' ) ( ' ( ( ( ( ' ( ",
"( ( ( ( [ [ ' ' ' ( ( ' ' ( ) ( ( ) ) ^ / / ~ 0 3 + . c x 1.1.1.1.1.1.1.1.1.1.- + 3 3 3 3 0 ~ / / ) ( ( ' ( ' ) ( ' ( ' [ ' ( ( ",
"( ( ( ( ' [ ' ( ( ( ( ' ' ' ( ( ( ( ( ) ( ( ) / ! 0 + 3 + + 3 3 3 3 3 + + 3 3 3 0 ~ ~ ~ / / ) ( ( ( ( ( ( ( ( ( ( ( ( ( [ [ ( ( ",
"( ( ( ( ( ' ( ( ( ( ( [ { ' ( ( ' ' ' ) ( ( ( ( ( ^ ~ ~ ^ ~ ~ ~ ~ ~ ~ ~ ~ / ~ ~ ! ! / ) ( ( ( ( ( ( ( ( ( ' ' ( ( ( ( ( ( ' ( ( ",
"( ( ' ( ( ( ( ( ( ( ( ( ' ( ( ( [ [ ' ' ( ( ( ' ( ( ( ( ) / / / / / / / ( ( ( ( ( ' ( ( ( ( ( ( ' { [ ( ( ' ' ' ( ( ( ( ( ( ( ( ",
"( ( ( ( ' ( ( ( ( ( ( ( ' ' ( ( ' ) ( ' ( ( ( ( ( ( ( ( ( ( ( ( ( ( ' ( ( ( ( ( ( ' ( ( ( ( ( ) ( ( ' ( ( ' ( ( ( ( ( ( ( ( ' ( ",
"( ( ( [ } [ ' ( ) ' ) ( ' ' ' ( ( ' ( ' ( ( ' ' ' ( ( ' ( ' ' ( ( ' ' ( ( ' ' ( ( ( ( ( [ | [ ' ' ' ' ( ( ) ' [ ' ' ( ( ( ( ( ( ",
"( ( ' ( ' ' ' ( ( [ [ ( ' ' ( ( ' ( ( ( ( ( [ } [ ( ( ' ( ( ' ( ( ( ( ( ( ' ( ' ' ( ' ' ' ' ' ( ( ( ' ( ( ) [ [ ' ( ( ( ( ( ( ( ",
"( ( ' ( ( ' ' ' ' [ ' ( ' ' ( ( ) ( ( ( ( ' ' ( ( ( ) [ | [ ' ' ( ( ( ' ( } [ ' ( ( ' ' ' ( ' ( ( ' ' ' ' ( ( ( ( ( ( ' ( ( ( ( ",
"( ( ' ( ( ' ( ( ' ) ( ( ( ' ( ( [ [ ' ( ' ' ( ' ( ( ( ( ' ' ' ' ( ( ( ( ' ( ' ' ' ( ' ' ' ( ( ( ' ' ( ( ( ' ( ' ( ' ' [ ' ' ' ' ",
"' ( ( ( ' ' ( ( ' ( ( ( ( ' ' ( [ [ _ ( ( ' ( ' ( ( ( ( ( ' ' ( ( ( ( ( ( ' ( ( ' ( ' ( ' ( ' ( [ [ ' ( ( ( ( ' ( ( [ { [ ' ' ( ",
"' ( ' ' ( ' ( ( ' ( ( ( ( ' ( ( ' ( ' ( ( ' ( ( ( ( ( ( ' ' ( ' ' ( ' ( ' ' ' ' ' ( ' ' ' ( ' ( [ [ ' ( ( ' ' ' ( ( ( ( ' ' ( ( ",
"( ( ( ' ( ( ( ' [ { ' ( ' ' ( ( ' ( ( ( ' ' } [ ' ( ( ( ' ( ' [ ' ' ' ( ' ' ( ( ' [ [ ' ' ( ' ( ( ' ( ( ( ' { { ( ' ( ( ' ( ( ( ",
"( ( ( ( ( ( ( ( ' ' ( ' ' ' ( ( ' ( ( ( ( ' [ [ ' ( ( ( ' ' [ [ [ ( ' ( ' ' ( ( ' ' ' ' ' ( ( ' ' ' ' ( ' ( [ ( ' ' ( ' ' ( ( ( ",
"( ( ' ( ( ( ( ( ' ( ( ' ' ' ( ' ' ( ( ( ( ( ' ' ( ( ( ( ( ' ' ( ( ( ( ( ' ' ' ' ' ( ' ' ' ( ( ' ' ' ' ( ' ' ( ( ' ( ( ( ' ' ( ( ",
"( ( ' ( ' ' ( ( ' ( ( ' ' ' ( ' ' ( ( ( ( ( ( ( ( ( ( ' ( ' ' ( ( ' ' ( ( ' ( ( ' ' ' ' ' ( ( ' ( ' ' ( ( ' ( ( ( ( ( ( ' ' ( ( ",
"( ( ( ( ' ( ( ( ( ( ' ( ' ' ( ' ' ' ( ( ( ( ( ( ( ' ( ' ' ' ( ( ' ' ' ( ( ' ( ( ' ( ' ' ' ( ' ( ' ' ( ( ( ( ( ' ( ( ( ' ( ( ( ( "
};
