/* XPM */
static char *_2ad62f7d45d4d7ed85753940866a0fdAPhMn1hvKF407jSm[] = {
/* columns rows colors chars-per-pixel */
"64 64 173 2 ",
"   c #072F56",
".  c #092F56",
"X  c #072F59",
"o  c #0A2F59",
"O  c #073157",
"+  c #093057",
"@  c #07345C",
"#  c #073259",
"$  c #083058",
"%  c #093058",
"&  c #083158",
"*  c #093158",
"=  c #083059",
"-  c #093059",
";  c #083159",
":  c #093159",
">  c #0A3058",
",  c #0A3158",
"<  c #0B3158",
"1  c #0A3059",
"2  c #0A3159",
"3  c #083258",
"4  c #093258",
"5  c #083358",
"6  c #083259",
"7  c #093259",
"8  c #083359",
"9  c #093359",
"0  c #0A3259",
"q  c #0B3259",
"w  c #09305A",
"e  c #08315A",
"r  c #09315A",
"t  c #09305B",
"y  c #08315B",
"u  c #09315B",
"i  c #0A305A",
"p  c #0B305A",
"a  c #0A315A",
"s  c #0A305B",
"d  c #0A315B",
"f  c #08325A",
"g  c #09325A",
"h  c #09335A",
"j  c #08325B",
"k  c #09325B",
"l  c #08335B",
"z  c #09335B",
"x  c #0A325A",
"c  c #0A335A",
"v  c #0B335A",
"b  c #0B325B",
"n  c #093459",
"m  c #08315C",
"M  c #08325C",
"N  c #09325C",
"B  c #08325D",
"V  c #0A335C",
"C  c #0A365E",
"Z  c #0B365E",
"A  c #0D365E",
"S  c #0C365F",
"D  c #0D375F",
"F  c #093159",
"G  c #073A5F",
"H  c #0B395D",
"J  c #0B385E",
"K  c #0A385F",
"L  c #093A5E",
"P  c #093A5F",
"I  c #0B3B5F",
"U  c #0D385E",
"Y  c #0C395E",
"T  c #0C385F",
"R  c #0B395F",
"E  c #073760",
"W  c #093761",
"Q  c #0A3661",
"!  c #0B3661",
"~  c #0A3761",
"^  c #093763",
"/  c #0A3763",
"(  c #0C3660",
")  c #0B3761",
"_  c #073A60",
"`  c #073D63",
"'  c #073963",
"]  c #093860",
"[  c #083960",
"{  c #093960",
"}  c #093861",
"|  c #093961",
" . c #0A3860",
".. c #0B3860",
"X. c #0B3960",
"o. c #0A3861",
"O. c #0A3961",
"+. c #0B3961",
"@. c #093A61",
"#. c #0A3A60",
"$. c #0B3B61",
"%. c #083862",
"&. c #093862",
"*. c #093962",
"=. c #083863",
"-. c #083963",
";. c #0A3862",
":. c #0B3862",
">. c #0A3962",
",. c #0B3962",
"<. c #0A3863",
"1. c #0A3963",
"2. c #0B3963",
"3. c #093A62",
"4. c #0A3A62",
"5. c #0B3A62",
"6. c #0B3B62",
"7. c #0A3A63",
"8. c #0B3A63",
"9. c #0A3B63",
"0. c #0D3860",
"q. c #0C3861",
"w. c #0C3961",
"e. c #0D3961",
"r. c #0C3A60",
"t. c #0C3A61",
"y. c #0C3B61",
"u. c #0C3862",
"i. c #0C3863",
"p. c #0D3963",
"a. c #0C3A62",
"s. c #0D3A62",
"d. c #0C3A63",
"f. c #0D3A63",
"g. c #0F3A63",
"h. c #093C63",
"j. c #083D63",
"k. c #093D63",
"l. c #0C3C63",
"z. c #0E3C63",
"x. c #0A3964",
"c. c #0B3964",
"v. c #0B3865",
"b. c #083A64",
"n. c #0A3A64",
"m. c #0B3A64",
"M. c #0B3B64",
"N. c #0A3B65",
"B. c #0B3966",
"V. c #0B3A66",
"C. c #0A3B66",
"Z. c #0B3A67",
"A. c #0A3B67",
"S. c #0C3964",
"D. c #0E3964",
"F. c #0C3A64",
"G. c #0D3B64",
"H. c #0D3A65",
"J. c #0C3B65",
"K. c #0E3A64",
"L. c #0C3A66",
"P. c #0C3A67",
"I. c #0C3B67",
"U. c #0B3C66",
"Y. c #0C3C64",
"T. c #0C3C65",
"R. c #0C3C66",
"E. c #0D3C67",
"W. c #0B3A63",
"Q. c #0B3B69",
"!. c #093C69",
"~. c #0A3B69",
"^. c #103962",
/* pixels */
". . . .   .     . . . . . . . X + + # . . . . . . . . . . O   . . . O O O O . . . . . . . . . . . . . . . . . . .     . . . . . ",
". . . . * * * * . . . . . . . X O O * + + . . . + * + .   . . . . . O O O O # # . . . . . . . O . . . . . . . . . . . o o . . . ",
"+ . . * * ....* + + + + + + + * ....* + + + + + + + * ....o o + * * + O O O ..Q # + + + + * q...A * . . . . . . . + A ..Q * . . ",
"+ . * A ..` ..* * + + + + + + * q.C.* * + + + * * A q.h.h.# * + + + + O Y ..C...# + + + + * z.h...* . . . . . + O O ..C...+ . . ",
"+ * * Y ..# + + + o + + + + + + + + + # * + + * * ....* * * * + + + + * G.C.* + + + + + + + + + + + + + + + + + + O + + + O + + ",
"+ + * * # O + * o * * + + + + + + + + * * + + + < + O * + * + + O O + + * o + + + + * + + + + + + + + + + + + * * + + + * o o + ",
"O O + + + + * o * ....# + + + + + + + + O # q...* + + + + + + + * ..* + + + + + + + + + + + + + + + + + + + # ....* O 5 q.q.N + ",
"O + + + + * Q ^ ..h...* * + + + + + + P P ..C...* * + + + * Z ......* + + + + + + * Q ( * + + + + + * * Z ..' h...* * 5 q...# + ",
"+ + + + + * C.Q.E.# + + + + + + + + + E.E.q.# + + + + + * * ..U.q.* # * + + + + + * G.G.* + + + + + * @ C.Q.U.# + * * + + + + + ",
"+ + + + + o o o o * + + O * * # # + + + + + + + + + + + + + + + + + + O + * * * O O + . < + + + * + + # # o * * + + + + + + + + ",
"+ + + + + + + + + + + + + # ..P 5 + + o * * * + + + + + + + + + * * + O # q.P # + + + * * + + * * + + + * * + * * * ..C...* * + ",
"+ + + * ....5 O O + + q.......Y * + + * * * # Q q.* * o + + + + * * ....C.G.P n + . + + * * + * q.P O + < + + * ..........* * + ",
"+ + + * C.G.* + O * O C.C.q.* + + + + + + + * G.G.* + * + + + + * * C.G.q.* # * + + + + + + + N G.z.# + . + * N E...N * * * * + ",
"+ + + * * o + + O O O * * * + + + + + + + + * # # + + O O * + + + + * + + + + + O * * # O + + * # # O + + + + # * * o * # + * O ",
"+ + + + + + * * O O O + + + + + + + + + + + + + + O + + # ..Y * + + * + + + + + # q...# + + + + + + + O + + O + + + * N ..P # + ",
"+ + * o + * ....* + + + + + + * Q ..* + O O + + + # ........q.* + + + + + O ........A * + + + + + + + + * C...# + + * * Y P # O ",
"< + * ..C.C.G.q.* + + + + + + * ..C.* O O O + + + # q.q.q.N * * + + + + + + q.....# + + + + + + + + + + * C.G.# + + + * * O O O ",
"o + * G.Q.G.* # O + + + + + + * # # * O O * O # O + + * o o + + + + O + + o # # # # + + + + * * * + + + + # # O + + + + + + + + ",
"+ + * * * + . + O + + + + + + * + + * # # # q.q.* + + O + + + + + + P ..# * + + + + + * * # z.P # * + + + + + * # + + + + + + + ",
"+ + + + O O O + + # ....n + o + + + * ........P 5 O + + + + + + + + G ..# o + + + * N ( ....h.q.* * + + + + # C.C.* * + + + + * ",
"+ + + + O O * + + # q.q.# + + + + + + ......# + * + + + + + + + + + * * * * + + + + * ......* * q * + + + + # q.Q * * + + + + * ",
"+ + + + * * * + + * * * O + + + + + + * * * o o + * . + * + + + + + + + + + + + + + + * o * + + + + * * * + O # # + + . + + + + ",
"+ + + + * q.q.* + * o * + O # * + + + O O O + * * 5 q.q.* + + + + + + + + + Y A + + O O # + + + O * Y ^.* * + + + + + * A * + + ",
"+ + + * N U.q.* + + + . + # Z Z # + + + + + * * Q ..U...# + + + + + * ( ....U.q.* q + + + + + * P ..E.q.N * + + * ..' ..q.* * + ",
"+ + + + + O + + + + * + + * q.q.* + + + + + + * ( q.* o * + + * + + M G.G.C.* * * * + + + + + * q.q.# # * + + + * ..h...# + + + ",
"+ + + + + O + + + + + + + # * # # + + + + + + O + * * + + * * + + + + + + + + + + * + + + + + * * * + O O + + + + + + + + + + + ",
"+ + + + * * # * * P ..# O * * # # + + * + + + + + * + O O * * ..P * * * * O O + + . * Z * * + * o * + + + * * * * * * * * + + + ",
"+ + + + + * ..z.G.....# O O O + + O Y G.q.* + + + + + # q.G.G.....N * + + + + * q.q.C.Q * * + + + + + + + M E.U...* + + + + + + ",
"+ + + + + * ......# O + O O O o . O z.U.C.N o + + + o * ..C...* q o + + + + * N Q.Q.C.N + + + + + + + + + V ^.C...* + + + + + + ",
"+ + + + + * * * + * * # O O O + + * * M # # + + + + + + * N * + o + + + + + * * * * * * + + + + + + + + + q * * * + + + + + + + ",
"+ + O P ..* * + + * * * * # ..Z # + + * * + + * * + + + + * * * + # ....# + * + + + + + # + + * ..P O + + + + + + o * # ....* + ",
"+ + 5 P ..# + + O * * q.G...q.q.# O + + + O P q.# + + + + + + O O * C...# + + + . . O O * q.G.......O + + + + + * ..C...C.G.N + ",
"+ + + # # # + + O O O G.U.G.* + + + + o + # q...# + + + + + + O O O # # * + + + + + O O O E.U.q.* + O + + + + + * U.E.G.N # * + ",
"+ + + + + + O O O O * O + + * . + + O + + * * * * + + + + + + O * * + + + + * + + + O O O * * + + . + O + + + + * * * + + + + + ",
"+ + + + + + + + + O + + + + + + + * O + * + + * * + # ..q.* * + + + + + + * C...* + + + + + + + + + + # + + * ....* + + + + + + ",
"+ + + + + + + # ....N * + + + + + O P P O + + + Z ..C.G.q.* * + + + + # ..' C.q.* + + + + + + + + + O O # C.C.G.q.* * + + + + + ",
"+ + + + + + + # U.E.N o + * * o + # Y P # + + + q.E.G.# * + + + + + + # E.Q.# # O + + + + + + + + + O * # Q.E.# * + + + + + + + ",
"+ + + + + + + + + O + + + * * O + * . . + + + * + + * * + + + + + + + + + * + + + + * * + + + + + + O * * * * + + + + + + + + + ",
"O O O + q q * + + + + + + # ..P 5 + + + + * * * + + + + + * + * P ..* + + + + * * * ..q.o * + + + + * * * + + + * * * * ....# + ",
"O O O Z ......# + + + + + # q.Y # + + + + * q...# + + * M C.......q.* + + + + * C.C.C.q.# + + + + * ( C.N + + + * C.C.' C.q.* + ",
"O O O Y q.q.q.* + + + + + * * * + + + + + * q.G.* + + * # G.G...# * + + + + + * G.G.N * O + + + + * G.G.* + + + * C.G.q.M * * + ",
"O O O + + + + + + + + + + * o * + + + + + * * + + + + + + + * * + + + + + + + + + + * + + + + + + + * * + + + + + * * o o o * + ",
"+ + + + O O O + * * q.A * O + + + O # * * + + O + * * * * + + + + + + * * * O O O + + + * * q.Y n + + + + + * * + + + + + + + + ",
"+ + + + O O * A ....G.q.* O O + + O Y ..# O + O O O q.P * o + + + + + # C.C.# O O * * ( ..' C...N * + + + * ....* + + + + + + + ",
"+ + + + O O * q.U.q.# O O O O + + * q.q.# O + O O O q.q.* + + + + + + # q.U.# * O # 5 U.E.E.# * * + + + + * E.E.* + + + + + + + ",
"+ + * * O + + * # O + + * + + * * * + # * * * O O O # # O O + + + * * O O O O # # O + * q q + * + + + + + + * * + * * * * * * + ",
"+ + * ....N o * + + + + + * q.( * + + + + + + O O O O O O O # N q...* O O O + o o + + + + + + * * * O + + + + + + + + + * A * + ",
"o + * ..G.C.^ N + + + + O # G.q.* + + # q.....* O O + + # q.C.C.G.C.* O O O * G.q.* + + + + + * q.Y * + + + + + + # ..C.C.q.* < ",
"+ + * N N G.G.N + + + + + * # # * + + N G.C.C.* * O + + # G.G.q.# * + O O + Z U.C.* + + + + + # ..q.* + + + + + * N q.C.G.Z * + ",
"O + * * * # # * + + + * * * * * # + + < + O # O * O * o * # * * + + + O O + * # * * + + + + + + O * + * o + + + + . . * * * * + ",
"O O * * O O O + + N G.Z O + + + + O O O O + + O O O * * * + + + + + * q...* * + + + + + * * + + + + + * * * * + + + + . . + + + ",
"+ * ....* O O + * M C...* + + + + # Y Y O + + O O * q.q.# + + + O Y ..q.( M + + + + + * q.G.q.* + + + # ..G.q.* + + + + + + + + ",
"+ # C.C.* * O + + * * * * + + o + * Y z.* + o + O * q.z.# + + + O P I * q * + + + + + # C.Q.G.# + + + 5 ..Q.G.* + + + + + + + + ",
"# O # # * * * * * + + * * q * *   + + + + + o o q + O O O + + + + + * + + + + + o q + + * * + + + + + O O * * + + o < * + O O O ",
"O O O O + # E ..* * O + + # ..P n + o + + * # Q q.N * O O O * * * + + + * * M ..q.M + + + + + + * + O + + + + + + + O P Q * O O ",
"O O O # ......q.* * O + + # C.q.# + o O Y ..C.U...* * O * * q.q.* + + # G.C.C.E...# + + + + + # Q q.# + + + + + * P ..U...* * O ",
"O O + * C.G.* + * + O + * + * + + + + + q...C.# O + + + + * ..G.* + O # C.C...5 + + + + + + + # ..q.* + o + + + * C...* + * + O ",
"+ + * * # O O O + . + O * # # * + + + + + + * + + + + + + O O O O O # # # * + + + + + O * * + + * * * + + + o + + * + + + + + + ",
"+ + + + O O O O + + # + * Q Q * + + + + + + + + + # # # O + O O O O + + + O + + + * ..Q N * + + + * * + + # * + + + + + + + + + ",
"+ + + + O O O O + * ....Q E.q.* + + + + + + + + # Q ....# + + O O * Q Q # + + + + * ..q.* * + + + + + # P ..N * + + + + + + + + ",
"+ + + + * # # + + * q.C.C.# + + + * * + + * + + * q.G.q.# + + + O * C.C.# + + + + + + + + + + + + + + # ..C.* + + + # * + + + + ",
"+ + + + * Q Q * + + + * * + + + + * ..q.Y * + + + + + + * * * + + + + + + + + + + + + + + + + + + + + + + + + + + * ....* + + + ",
"+ + + * M C.G.* + + + + + + + + + * q.Q.C.* + + + + + + + + + + + + + + + + + + + + + + + + + + + + + + + + + + + # C.G.* + + + ",
"+ + + + + # * + + + + + + + + + + * # M # # + + + + + + * * * + * * * * * * + + + + + + + + + + + + + + + + + + + + # # + + + + "
};
