/* XPM */
static char *result[] = {
/* columns rows colors chars-per-pixel */
"64 64 227 2 ",
"   c #050304",
".  c #0B0303",
"X  c #04040C",
"o  c #0A0509",
"O  c #07090D",
"+  c #0D0C0D",
"@  c #0F0B07",
"#  c #120604",
"$  c #1A0603",
"%  c #150906",
"&  c #1B0A06",
"*  c #120B0C",
"=  c #1B0C09",
"-  c #120709",
";  c #0F110E",
":  c #12110D",
">  c #1C110C",
",  c #060A12",
"<  c #0C0B12",
"1  c #090F1D",
"2  c #120E12",
"3  c #110F18",
"4  c #0B121A",
"5  c #131313",
"6  c #1B1917",
"7  c #15151C",
"8  c #17181D",
"9  c #1B1B1A",
"0  c #1B1517",
"q  c #220B06",
"w  c #240E0A",
"e  c #2A0E0A",
"r  c #2C0F05",
"t  c #340F09",
"y  c #25110C",
"u  c #2C110A",
"i  c #2F150B",
"p  c #34140C",
"a  c #3B150C",
"s  c #39190E",
"d  c #361409",
"f  c #281613",
"g  c #351614",
"h  c #351911",
"j  c #3B1B12",
"k  c #3C1915",
"l  c #260F12",
"z  c #23221E",
"x  c #0A1325",
"c  c #0C1B2C",
"v  c #091527",
"b  c #1A1C22",
"n  c #131926",
"m  c #1D2125",
"M  c #16212C",
"N  c #0F243B",
"B  c #0D2337",
"V  c #112234",
"C  c #11253C",
"Z  c #182837",
"A  c #262622",
"S  c #2B2723",
"D  c #2C2A25",
"F  c #22242A",
"G  c #2D2B28",
"H  c #322D29",
"J  c #312E27",
"K  c #34342C",
"L  c #3C3B34",
"P  c #383834",
"I  c #44150C",
"U  c #441A0D",
"Y  c #4A1A0C",
"T  c #471409",
"R  c #5C1E0D",
"E  c #541D0D",
"W  c #431D12",
"Q  c #4B1C12",
"!  c #411612",
"~  c #541F13",
"^  c #5B1F10",
"/  c #651F0C",
"(  c #621D11",
")  c #5D230C",
"_  c #57250D",
"`  c #452114",
"'  c #4C2213",
"]  c #492718",
"[  c #552312",
"{  c #5C2312",
"}  c #5B2419",
"|  c #5C2A1A",
" . c #552719",
".. c #62220C",
"X. c #68280B",
"o. c #732B0E",
"O. c #622412",
"+. c #612913",
"@. c #6C2B13",
"#. c #642D1C",
"$. c #682617",
"%. c #732C13",
"&. c #772F17",
"*. c #64321C",
"=. c #6C361D",
"-. c #6B3319",
";. c #7C3314",
":. c #7A3619",
">. c #7C3A1C",
",. c #743619",
"<. c #4B3525",
"1. c #413D36",
"2. c #543B26",
"3. c #6B3522",
"4. c #7A3B24",
"5. c #5C4127",
"6. c #46443B",
"7. c #60402C",
"8. c #0E2E4C",
"9. c #0E2C45",
"0. c #132B44",
"q. c #112E4D",
"w. c #182C44",
"e. c #0E314D",
"r. c #12314E",
"t. c #0D2E50",
"y. c #122E50",
"u. c #0F3356",
"i. c #0E365D",
"p. c #0D385D",
"a. c #113254",
"s. c #11365C",
"d. c #11385C",
"f. c #173857",
"g. c #0D3661",
"h. c #0D3A63",
"j. c #103661",
"k. c #123B64",
"l. c #123F6A",
"z. c #0F446D",
"x. c #13436C",
"c. c #124167",
"v. c #0E4773",
"b. c #124472",
"n. c #4C4B42",
"m. c #4B4743",
"M. c #53524A",
"N. c #524E44",
"B. c #605E53",
"V. c #656358",
"C. c #717064",
"Z. c #8A3A1A",
"A. c #873916",
"S. c #963F1C",
"D. c #863922",
"F. c #8B431C",
"G. c #85431F",
"H. c #94431C",
"J. c #9A431C",
"K. c #9A471A",
"L. c #A54E1D",
"P. c #834324",
"I. c #8B4422",
"U. c #884528",
"Y. c #944322",
"T. c #964725",
"R. c #AA532B",
"E. c #AB5427",
"W. c #AB5331",
"Q. c #AC4F28",
"!. c #998F7F",
"~. c #9C8E81",
"^. c #958D85",
"/. c #9A9487",
"(. c #8F8D81",
"). c #A19384",
"_. c #A59C8C",
"`. c #AA9C8B",
"'. c #A79688",
"]. c #AA9E90",
"[. c #A49E93",
"{. c #ACA18D",
"}. c #A4A18C",
"|. c #AEA292",
" X c #AAA797",
".X c #B2A692",
"XX c #B3AB99",
"oX c #BCB29D",
"OX c #B4B29E",
"+X c #BCB6A2",
"@X c #BCB8A3",
"#X c #BAB5A6",
"$X c #B3ADA2",
"%X c #C4BA9F",
"&X c #C2B6A0",
"*X c #C6BCA5",
"=X c #C9BEA4",
"-X c #CABEA8",
";X c #C6BCAA",
":X c #CCC1A6",
">X c #CEC3AA",
",X c #CFC8AC",
"<X c #D1C6AA",
"1X c #D3CAAD",
"2X c #D8CDAF",
"3X c #D3CBB2",
"4X c #D4CFBC",
"5X c #D5C9B2",
"6X c #DBD4BC",
"7X c #D6D1BB",
"8X c #C7C4B1",
"9X c #E3D9BD",
"0X c #DEDAC2",
"qX c #DBD5C1",
"wX c #E4DBC2",
"eX c #E9DFC2",
"rX c #E3DFC9",
"tX c #EDE4C5",
"yX c #EEE5C9",
"uX c #EFE9CB",
"iX c #E7E1C7",
"pX c #F0E5C6",
"aX c #F0E7C9",
"sX c #F1E8CC",
"dX c #EEE9D3",
"fX c #F2EAD3",
"gX c #F1EBDA",
/* pixels */
"i.i.s.i.s.j.s.i.i.s.s.i.i.s.i.i.i.i.s.i.g.p.i.d.i.p.a.a.f.s.a.0.q.r.a.a.a.u.d.s.s.s.i.i.i.i.g.p.i.i.i.i.i.i.s.i.i.i.p.i.i.i.i.i.",
"i.s.s.i.i.i.i.i.s.i.i.i.i.s.s.i.i.i.s.i.l.z.s.i.u.u.8.y.e.0.c o 2 c 9.u.y.t.u.u.i.s.s.i.i.i.h.h.i.s.s.i.i.i.i.i.g.h.h.g.i.i.i.s.",
"s.p.g.g.h.h.h.i.g.i.i.s.p.h.h.i.i.i.s.i.i.i.y.8.C V V B V c * a d * c V V V B N 8.u.u.d.i.i.x.z.j.g.i.i.i.s.i.i.k.x.x.i.j.i.i.s.",
"i.s.j.h.x.b.x.g.i.s.s.g.h.x.x.g.g.i.s.a.u.8.N V O o . o   o y { [ u o o X o o O V N 8.a.u.i.g.g.p.h.h.i.i.i.s.i.l.i.i.i.s.s.i.i.",
"i.p.h.x.h.p.i.i.i.i.i.i.i.g.i.i.i.s.i.9.C V - # e t p p p o u ) { e o t e t t e # o V C 8.u.s.i.g.x.x.i.i.i.s.i.i.p.p.i.h.h.g.i.",
"i.p.h.i.s.d.s.i.i.s.i.p.i.s.i.i.d.y.8.c * # u a I R ) ( _ # e ..{ e $ } { O.R Y I q - O V 0.a.d.i.g.p.i.i.i.i.i.p.i.i.i.x.l.g.s.",
"i.i.i.i.g.g.j.k.d.i.p.p.u.p.i.i.a.q.V o e a Y [ W W W U U - y E E e # Q W Q W Q } Y a u + C q.s.i.d.i.p.i.i.i.i.p.u.i.p.i.i.s.i.",
"i.i.i.i.i.i.s.x.x.h.h.h.p.i.i.i.y.V O w Y [ Q a % % $ w w o w Y Y e o e w & = = Q Q [ T w X V 8.i.i.i.u.i.i.i.d.g.g.i.i.d.i.i.j.",
"i.i.i.i.i.i.i.i.g.x.b.c.h.i.d.a.w.X # a ` ` % w t E T %.#.% a &.%.a % %.+.U U u % & Q ~ d . X q.u.p.i.u.d.h.p.p.z.z.h.g.g.i.i.i.",
"i.s.i.i.i.i.i.i.i.h.h.i.i.i.i.8.c # a k & w Y @.o.o.o.L.3.w X.T.Y.O.& U.K.o.o.o.$.I % # g u . V e.u.i.i.i.c.p.i.g.g.l.z.h.p.i.i.",
"i.i.g.s.i.i.g.i.i.u.d.i.i.i.a.9., e W $ Q @.%.H.D.D.P.7.= y K.L.L.H.= & U.U.I.G.Y.%.@.Y . p y , 9.i.i.i.i.d.j.s.i.i.i.g.l.g.i.i.",
"i.i.i.j.g.h.h.i.i.p.d.u.i.d.a.V * w # k &.H.:.=.j p p p +.w >.K.K.=.w { y p q s =.:.H.&.Y % = ; V u.i.i.s.i.i.i.i.i.i.i.p.i.i.i.",
"i.u.g.g.l.z.z.g.i.g.i.i.i.p.8.< l   I %.H.*.@ # 3.,.>.T.) y = ,.4.% u ) T.T.%.4.p w =.F.&.I . y < q.g.h.i.i.i.i.i.i.i.i.i.i.i.i.",
"i.i.s.l.g.g.g.i.i.g.h.h.g.i.9.O = $ %.J.=.& : : > * . I...Z.u y y p >.) J.H.o.F.Z.O.s :.T.@.& = , q.i.l.i.i.i.i.i.i.i.i.g.h.i.i.",
"i.i.s.i.i.u.i.i.i.i.x.x.h.s.e.O = $.H.*.s : 5.5.2.5.. Y.) A.o.H.H.@.Z.( K.H.o.Z.Z.@.A.[ -.K.#.& < q.i.i.i.i.i.i.u.i.i.i.l.l.g.i.",
"i.j.i.i.i.i.i.i.i.i.i.i.s.i.8.< i A.T.# ,.y 5.] ] 5.. H...Z.%.-.*.@.Z...J.H.o.A.A.O.A.>.& L.A.u + q.g.i.i.i.i.l.g.g.i.i.i.i.i.i.",
"i.i.i.i.i.i.i.i.i.i.i.i.i.i.8.< a Q.4.q 4.> <.<.<.<.. H...Z.~ = w ~ A...K.H.) [ ' a ;.Z.q P.Q.d O q.i.i.p.i.h.v.v.v.l.i.i.i.i.i.",
"i.i.i.i.i.u.i.u.i.i.i.i.i.u.0.2 [ E.# _ A.w % = w # & H.O.#.w I a y *...S.D.p - . & ' Z.[ . W.Y 2 q.g.i.p.g.b.z.v.b.x.i.i.i.i.i.",
"i.i.i.i.i.g.g.h.i.s.i.i.i.i.8.2 ^ R.  ) Z.` j ] ] g s S.} - e @.$.u $ | S.` $ w r u q  .) . Q._ < q.i.s.g.h.i.i.g.i.g.g.i.i.u.g.",
"i.i.i.i.g.h.z.z.i.d.i.i.i.u.8.2 R R.  { :.= 2 . # 5 . Y.X.# a I.P.a $ ..J.. w e r u e $ } . E.[ + q.i.s.h.x.p.i.i.i.i.i.i.i.i.i.",
"i.h.p.p.l.l.h.p.i.i.i.i.i.i.q.2 R R.  ) :.= # f w - . I.) = j e e k = #.H.# e W W W i # } . E.E 2 r.i.i.i.i.i.i.i.i.i.i.i.i.i.i.",
"i.p.p.i.i.i.u.u.i.g.i.i.i.i.8.2 ^ R.. { | = u W W u # 4.O.u # T a - u { H.# W W W Q s % } . Q._ < r.i.s.i.i.u.i.i.i.i.g.i.i.i.i.",
"i.i.p.i.u.p.p.p.i.l.i.i.g.i.0.2 E R.. [ u y W W W W 0 e _ A.w } [ y 4.X.I.s k s W U j p { . E.[ 2 r.i.i.i.s.i.i.g.g.h.h.g.g.i.u.",
"i.i.i.i.i.i.p.u.i.i.i.i.i.i.q.2 { W.. ) 4.p h s j h t T.O.3.w ~ [ w ;./ F.U.y h h g g D.R   Q.~ < y.i.d.g.g.i.g.h.z.z.z.z.g.i.i.",
"i.i.i.i.i.g.i.i.i.p.p.i.q.8.0.2 R R.  Y A.A.t h s p Y.A.T O.= a d q $.I ;.S.{ j a p Z.A.U . R.[ 2 q.9.9.i.s.g.x.z.g.g.g.g.i.i.i.",
"i.i.i.h.h.h.h.i.p.i.i.0.7 , V + U P.  y { #.Y #.#.Q -.| e Q # l e % Y p +.=.[ @.#.Q @. .q . P.k < V , 7 C u.i.i.g.i.i.i.i.j.i.i.",
"i.i.h.b.v.v.z.p.u.i.i.7 k + S S D D S S S H J J H H H H H H H H H J H H H H H H H H S S S S S S S S @ g n f.u.g.i.i.i.i.i.i.i.i.",
"i.p.x.p.p.i.i.i.i.i.i.8.2 m./.`.`.|.|.|.[.|.;X:X5X5X1X1X<X5X,X,X,X1X,X1X1X1X3X3X;X;XXX`.|..X|.].[.~.L + q.d.d.p.i.i.i.i.i.i.i.i.",
"i.i.i.i.s.s.g.g.g.s.p.e.z ).`.`.{.=X-X<X.X-X:X>X5X4X7XtXpXpXyXaXtXuXpXtXyX3X3X3X:X:X-X.X<X-X-X{.`.`./.0 y.g.s.p.i.g.i.g.i.i.s.i.",
"p.i.i.i.j.g.x.x.g.s.p.8.b '.`.`.*X1XsXpX<XtXuX6XS < 5 #XpXtXtXtXtXtXtXiXOX: < D 0XtXtX<XaXaX1X;X].`.~.8 e.i.i.g.s.i.s.h.i.i.i.s.",
"i.i.d.i.i.i.i.i.i.i.i.q.m ).`..X=XaXaXpX<X9XtXXXz 5 5 @ @X*XiXtXtXiX:X#X* 5 5 D $XtXeX<XaXaXaX*X.X`.~.b q.i.i.g.k.i.g.z.z.h.i.i.",
"i.i.i.d.s.g.h.i.i.i.i.y.m ).].;X<XaXpXwX1XtX3Xz 8 K P ; 5 D  X+X#X}.A : : K K 5 z 9XeX1XwXaXpX<X*X].~.7 q.d.i.x.x.g.i.i.g.i.i.i.",
"i.p.i.i.p.x.x.h.i.s.g.q.m ).].=XeXpXuX%XeXtX7X6.M.qX0XK 5 ; < 5 5 2 5 5 G rX4Xn.6.6XtXtX%XpXtXeX=X.X!.9 q.i.p.g.g.i.i.i.i.i.i.u.",
"i.s.i.i.i.g.h.j.i.i.s.q.m '..X=XeXtXtX*XeXtXtXiXiXiX X[.< 5 9 M.M.6 5 5  X XiXwXiXtXtXtX:XpXtXtX=X.X~.9 y.i.i.s.g.i.i.i.i.i.i.i.",
"s.i.i.j.i.p.h.s.j.i.i.q.m _.*X5XtXtXuX:XtXeXOX.X X}.6 9 ; m.V.0X4XV.m.5 9 9 [. XOXOXwXtX:XtXtXtX2X=X~.8 y.d.i.i.i.i.s.d.i.i.i.i.",
"i.s.s.i.g.h.h.h.i.d.i.y.m '.-XtXuXpXtX:XtX1X9 5 5 5 5 6.L #X0X@X@X0X$XP 6.5 5 5 : A 7XtX=XuXtXuXtX>X~.b y.i.i.i.h.h.h.l.p.i.i.i.",
"i.s.i.g.h.b.b.x.h.p.i.q.F '.:XiXtXpXuX:XtX1XL 5 5 5 L dXdXL /.9 f /.1.gXuXL 5 5 5 6.6XtX=XuXtXpXtX:X).8 y.d.d.i.h.b.b.b.i.i.i.i.",
"j.i.j.x.b.g.i.h.i.i.i.q.b `.:XiXpXpXtX:XtXtX4XA 9 M.sXtXXX9 ; 5 7 5 b  XtXfX6.6 A 6XtXtX=XuXtXtXiX:X).8 y.d.i.p.x.h.g.p.i.s.i.i.",
"i.i.i.i.g.i.i.s.g.s.i.y.F oX2XtXtXtXtX*XtXtX6XV.C.0XyX}.; ; 9 M.M.8 ; 5  XiXqXV.V.9XtXeX=XpXeXtXtX2XXXb q.i.u.d.i.g.i.s.s.s.s.i.",
"i.s.i.i.s.i.i.i.i.i.i.y.F %XtXtXuXtXtX:XiXtXtXuXuXtX X+ 5 P F OX XD P 5 ;  XiXuXuXtXtXtX:XuXtXtXtXiXoXb a.i.p.i.i.i.s.j.i.i.g.s.",
"i.i.i.d.d.i.i.i.i.i.g.y.F &XtXtXtXtXtX:XiXtXtXtXtX6X+ 5 6.8Xn.5 5 M.8X6.; @ 0XtXtXtXtXiX:XpXtXtXtXtXoXb q.i.i.i.i.i.g.h.i.i.i.i.",
"i.s.s.i.d.i.h.h.h.i.i.8.F &XiXtXtXtXuX:XtXiXpXpXtX0X; : dXtX3XA A qXtXiX; ; 0XuXtXtXtXtX=XpXuXtXpXeXoXb y.s.k.h.i.i.l.z.p.i.i.i.",
"i.i.s.i.h.l.z.l.x.i.i.y.F &XeXtXtXtXtX1X6XtXuXtXtXwX; ; [.}.(.b z (././.; ; 0XpXpXtXtX9X2XpXtXtXtXtXoXb q.p.x.x.i.d.i.i.i.s.i.i.",
"i.i.g.g.l.h.h.h.p.i.i.y.F &XiXtXtXtXtXtX1XeXuXtXtX9X+ ; 5 6 6 5 5 5 5 7 ; ; 6XtXtXpXeX<XtXpXtXtXpXeXoXb y.s.g.s.i.i.d.i.i.i.i.i.",
"i.i.s.i.i.i.i.i.s.i.h.y.F &XeXtXtXtXyXyX<XtXtXtXtX9XL 5 ; 5 5 : 5 5 5 5 5 L wXtXtXpXeX<XpXpXpXtXyXtXoXb a.i.p.i.i.i.g.d.s.i.i.i.",
"i.j.i.i.g.i.i.g.h.g.s.y.F &XeXpXpXtXtXaX>XtXtXtXtXtXiXK 5 ; 5 5 ; 5 7 5 K uXtXtXtXtXeX<XpXpXtXtXtXtXoXb r.u.i.i.s.i.g.h.g.g.i.i.",
"i.i.i.i.i.i.i.z.x.h.j.y.F &XeXaXtXtXtXpX<XiXtXpXtXtXpXgXm.6.n.n.n.6.N.N.gXuXtXuXtXpXtX<XpXtXtXpXpXyXoXb 8.i.i.i.i.h.x.z.x.h.i.i.",
"i.s.i.i.i.i.i.i.s.s.s.y.F &XeXtXpXaXtXyX2X9XtXpXpXpXtXpXsXsXuXuXuXuXuXuXuXtXtXpXtXtX9X2XpXtXtXpXpXeXoXb q.i.i.i.s.i.i.g.i.i.i.u.",
"i.i.i.i.i.g.i.i.i.i.p.q.F &X9XtXpXpXpXtXtX<XtXpXpXpXpXpXpXpXtXtXyXtXtXpXtXtXpXtXtXtX<XeXtXpXtXtXtXwXoXb q.i.i.i.i.u.i.i.i.i.i.i.",
"i.i.i.x.g.i.g.i.i.j.i.C b !.}.oXoXoX@X@XoX}.oXoX@X@X+X+XoX+X+X&X+X+XoX+X@X@X@X@X@XoX}.OX+X+X+X+X+X_.^.0 C s.g.i.p.p.i.h.h.i.p.p.",
"i.i.i.p.i.i.s.i.i.s.w.* . # % # # . # # # # # # # # # #   . # # % % #   # # # . # # . # # # # # # - #   2 w.i.u.g.h.h.x.x.i.d.d.",
"i.i.p.h.l.h.h.i.i.a.X W = ' [ [ [ [ [ [ [ [ [ _ [ [ E [ . a Q Q Y U a    ._ { [ [ _ { E [ ~ [ ~ ^ ~ ~ % W X d.i.i.l.g.g.p.i.s.s.",
"i.i.s.l.z.z.x.i.i.a.x ` = ' [ [ [ [  .[  .[ [ [ _ [ [ ] . s U Y I U a .  .[  .[ [ [ [ [ [ [ [ [ [ [ ] $ ` x u.g.i.i.s.s.i.j.p.i.",
"i.i.i.i.i.i.i.p.p.i.d.v x x x x x x x c c v x x v v x n   s  .| | #.h   x v x v x x x v x x x v v v v x c s.j.i.i.i.d.s.i.i.i.i.",
"i.i.i.i.i.i.p.i.d.i.s.i.h.j.j.s.i.i.g.x.x.h.s.j.i.i.g.a.  } % l # E | o f.g.j.g.j.i.i.i.i.i.i.i.i.i.s.s.i.s.j.s.i.i.h.h.i.i.s.i.",
"i.i.i.i.g.h.x.k.i.i.i.k.x.x.h.d.i.i.i.i.i.s.d.i.u.0.C C 1 f = | - s f x d.i.s.i.s.i.i.i.h.i.i.i.s.i.i.i.i.s.s.i.h.h.x.c.k.s.i.i.",
"i.i.s.g.l.z.i.i.u.i.i.i.g.h.i.i.p.i.i.u.p.d.i.i.N O O , M o # +.* x c f.i.i.i.i.i.i.p.h.c.c.p.g.i.g.g.i.g.l.g.i.c.x.h.i.i.i.i.i.",
"i.s.i.i.i.p.i.i.i.i.i.s.i.s.i.i.i.p.i.i.i.i.i.u., O 5 8 + O % +.* r.d.s.g.i.i.i.i.p.i.p.i.i.p.p.p.i.i.p.l.l.g.i.i.g.i.s.i.i.i.i.",
"i.i.i.j.i.i.s.i.p.h.h.i.i.i.i.p.p.i.h.h.i.i.a.r.O : o 6 9 5 = | * y.g.g.i.p.g.g.h.i.i.i.i.i.p.i.i.i.i.i.i.g.g.i.s.d.i.i.i.i.i.i.",
"i.i.g.x.x.g.i.d.i.x.b.i.i.i.i.i.i.s.x.x.p.d.p.r.O   5 5 8 6 = +.2 q.s.p.h.h.x.x.z.h.p.i.i.i.i.p.i.i.i.i.i.i.i.i.i.i.i.g.i.i.i.i.",
"s.s.i.g.i.i.i.g.i.i.i.i.i.i.s.i.p.i.p.p.i.i.i.q., 1 4 4 7 5 % [ * e.i.p.z.x.h.p.i.i.i.g.i.i.i.g.h.i.i.i.s.i.s.s.i.h.l.z.l.p.i.i.",
"i.i.i.s.i.i.i.l.g.i.s.i.d.g.i.i.l.p.i.i.d.i.i.u.c 8.i.a.1 1 3 h O u.i.i.g.p.i.p.i.i.i.i.i.h.x.b.x.i.i.i.i.i.i.i.k.l.g.i.i.i.p.i.",
"i.i.s.g.i.i.i.h.i.p.d.i.i.g.i.i.p.i.i.s.i.i.i.i.a.i.p.d.a.a.0.< 1 a.u.p.i.p.i.i.i.i.i.i.i.i.i.k.g.i.i.i.i.s.i.i.i.g.i.i.i.i.i.i.",
"i.i.s.i.i.i.i.g.i.i.d.i.i.s.i.i.i.i.s.i.i.s.i.g.d.i.i.i.i.p.p.s.s.i.i.i.i.p.p.u.i.i.s.i.i.i.i.i.i.i.i.i.i.i.i.i.i.i.i.i.i.i.i.i."
};
