/* XPM */
static char *d0413176f39e4469d0c2500626b93efemSUmWn00hflB5Fa7[] = {
/* columns rows colors chars-per-pixel */
"64 64 228 2 ",
"   c #050304",
".  c #0B0303",
"X  c #04040C",
"o  c #0A0509",
"O  c #07090D",
"+  c #0D0C0D",
"@  c #0F0B07",
"#  c #120604",
"$  c #1A0603",
"%  c #150906",
"&  c #1B0A06",
"*  c #120B0C",
"=  c #1B0C09",
"-  c #120709",
";  c #0F110E",
":  c #12110D",
">  c #1C110C",
",  c #060A12",
"<  c #0C0B12",
"1  c #090F1D",
"2  c #120E12",
"3  c #110F18",
"4  c #0B121A",
"5  c #131313",
"6  c #1B1917",
"7  c #15151C",
"8  c #17181D",
"9  c #1B1B1A",
"0  c #1B1517",
"q  c #220B06",
"w  c #240E0A",
"e  c #2A0E0A",
"r  c #2C0F05",
"t  c #340F09",
"y  c #25110C",
"u  c #2C110A",
"i  c #2F150B",
"p  c #34140C",
"a  c #3B150C",
"s  c #39190E",
"d  c #361409",
"f  c #281613",
"g  c #351911",
"h  c #3B1B12",
"j  c #391815",
"k  c #260F12",
"l  c #23221E",
"z  c #0A1325",
"x  c #0C1B2C",
"c  c #091527",
"v  c #1A1C22",
"b  c #131926",
"n  c #1D2125",
"m  c #16212C",
"M  c #0F243B",
"N  c #0D2337",
"B  c #112234",
"V  c #11253C",
"C  c #182837",
"Z  c #262622",
"A  c #2B2723",
"S  c #2C2A25",
"D  c #22242A",
"F  c #2D2B28",
"G  c #322D29",
"H  c #312E27",
"J  c #34342C",
"K  c #3C3B34",
"L  c #383834",
"P  c #44150C",
"I  c #441A0D",
"U  c #4A1A0C",
"Y  c #471409",
"T  c #5C1E0D",
"R  c #541D0D",
"E  c #431D12",
"W  c #4B1C12",
"Q  c #411612",
"!  c #541F13",
"~  c #5B1F10",
"^  c #651F0C",
"/  c #621D11",
"(  c #5D230C",
")  c #57250D",
"_  c #452114",
"`  c #4C2213",
"'  c #492718",
"]  c #552312",
"[  c #5C2312",
"{  c #5B2419",
"}  c #5C2A1A",
"|  c #552719",
" . c #62220C",
".. c #68280B",
"X. c #732B0E",
"o. c #622412",
"O. c #612913",
"+. c #6C2B13",
"@. c #642D1C",
"#. c #682617",
"$. c #732C13",
"%. c #772F17",
"&. c #64321C",
"*. c #6C361D",
"=. c #6B3319",
"-. c #7C3314",
";. c #7A3619",
":. c #7C3A1C",
">. c #743619",
",. c #4B3525",
"<. c #413D36",
"1. c #543B26",
"2. c #6B3522",
"3. c #7A3B24",
"4. c #5C4127",
"5. c #46443B",
"6. c #60402C",
"7. c #0E2E4C",
"8. c #0E2C45",
"9. c #132B44",
"0. c #112E4D",
"q. c #182C44",
"w. c #0E314D",
"e. c #12314E",
"r. c #0D2E50",
"t. c #122E50",
"y. c #0F3356",
"u. c #0E365D",
"i. c #0D385D",
"p. c #113254",
"a. c #11365C",
"s. c #11385C",
"d. c #173857",
"f. c #0D3661",
"g. c #0D3962",
"h. c #0D3A63",
"j. c #103661",
"k. c #123B64",
"l. c #123F6A",
"z. c #0F446D",
"x. c #11456E",
"c. c #13426C",
"v. c #124167",
"b. c #0E4773",
"n. c #124472",
"m. c #4C4B42",
"M. c #4B4743",
"N. c #53524A",
"B. c #524E44",
"V. c #605E53",
"C. c #656358",
"Z. c #717064",
"A. c #8A3A1A",
"S. c #873916",
"D. c #963F1C",
"F. c #863922",
"G. c #8B431C",
"H. c #85431F",
"J. c #94431C",
"K. c #9A431C",
"L. c #9A471A",
"P. c #A54E1D",
"I. c #834324",
"U. c #8B4422",
"Y. c #884528",
"T. c #944322",
"R. c #964725",
"E. c #AA532B",
"W. c #AB5427",
"Q. c #AB5331",
"!. c #AC4F28",
"~. c #998F7F",
"^. c #9C8E81",
"/. c #958D85",
"(. c #9A9487",
"). c #8F8D81",
"_. c #A19384",
"`. c #A59C8C",
"'. c #AA9C8B",
"]. c #A79688",
"[. c #AA9E90",
"{. c #A49E93",
"}. c #ACA18D",
"|. c #A4A18C",
" X c #AEA292",
".X c #AAA797",
"XX c #B2A692",
"oX c #B3AB99",
"OX c #BCB29D",
"+X c #B4B29E",
"@X c #BCB6A2",
"#X c #BCB8A3",
"$X c #BAB5A6",
"%X c #B3ADA2",
"&X c #C4BA9F",
"*X c #C2B6A0",
"=X c #C6BCA5",
"-X c #C9BEA4",
";X c #CABEA8",
":X c #C6BCAA",
">X c #CCC1A6",
",X c #CEC3AA",
"<X c #CFC8AC",
"1X c #D1C6AA",
"2X c #D3CAAD",
"3X c #D8CDAF",
"4X c #D3CBB2",
"5X c #D4CFBC",
"6X c #D5C9B2",
"7X c #DBD4BC",
"8X c #D6D1BB",
"9X c #C7C4B1",
"0X c #E3D9BD",
"qX c #DEDAC2",
"wX c #DBD5C1",
"eX c #E4DBC2",
"rX c #E9DFC2",
"tX c #E3DFC9",
"yX c #EDE4C5",
"uX c #EEE5C9",
"iX c #EFE9CB",
"pX c #E7E1C7",
"aX c #F0E5C6",
"sX c #F0E7C9",
"dX c #F1E8CC",
"fX c #EEE9D3",
"gX c #F2EAD3",
"hX c #F1EBDA",
/* pixels */
"u.u.u.u.u.u.u.u.u.u.u.u.u.u.u.u.u.u.u.u.u.u.u.u.u.u.u.u.u.u.u.u.u.u.u.u.u.u.u.u.u.u.u.u.u.u.u.u.u.u.u.u.u.u.u.u.u.u.u.u.u.u.u.u.",
"u.u.u.u.u.u.u.u.u.u.u.u.u.u.u.u.u.u.u.u.u.u.u.u.u.u.u.u.u.u.u.u.u.u.u.u.i.u.u.u.u.u.u.l.u.u.u.u.u.u.u.u.u.u.u.u.u.u.i.u.u.u.u.u.",
"u.u.u.u.s.u.u.u.u.u.u.i.i.u.i.u.u.u.u.u.u.u.u.u.u.u.a.u.u.u.u.u.u.u.u.u.c.h.u.u.u.u.u.u.u.u.u.u.u.u.u.u.u.u.u.u.u.u.h.h.a.u.u.u.",
"u.u.u.u.c.g.u.f.u.a.u.l.g.u.v.i.u.u.u.u.i.u.u.a.u.u.c.f.u.u.u.u.a.u.u.u.i.n.g.u.u.u.u.f.u.u.u.u.u.u.l.h.j.u.u.u.u.f.i.c.h.u.u.u.",
"u.u.u.f.c.u.u.c.k.a.u.z.h.u.f.u.u.u.u.u.c.h.u.a.u.f.c.h.u.u.u.i.u.u.u.a.u.n.g.u.u.u.u.c.g.u.u.u.u.u.f.z.g.u.u.u.u.u.a.u.c.h.u.a.",
"u.u.u.u.f.u.i.c.h.u.u.z.h.a.a.u.u.u.u.u.h.c.g.u.u.u.g.n.h.u.f.x.g.u.h.a.i.b.g.u.a.u.u.c.g.u.u.u.u.a.f.z.h.u.u.u.u.u.a.i.c.g.u.a.",
"u.u.a.u.u.a.u.h.x.i.u.c.h.a.u.u.u.u.u.u.h.c.h.u.u.u.u.n.h.u.f.x.h.u.c.f.u.x.g.u.a.u.u.h.x.g.u.u.u.u.f.x.k.u.u.u.f.f.a.i.c.g.u.a.",
"u.g.l.g.u.u.u.u.s.u.i.i.u.u.u.u.u.z.g.u.g.c.h.u.u.u.u.c.g.u.u.g.u.u.c.h.u.i.u.u.u.u.u.i.x.g.u.u.u.u.u.i.a.u.u.i.c.j.u.u.g.u.u.u.",
"u.u.u.u.u.u.u.u.u.u.u.i.i.u.u.u.u.x.k.u.i.c.h.u.u.u.u.i.u.a.u.u.u.u.f.f.u.a.u.u.u.u.u.u.u.u.u.u.u.u.u.u.u.u.u.i.c.j.u.u.u.u.u.u.",
"u.u.u.i.c.g.u.u.u.u.a.d.d.a.f.u.a.i.j.u.u.u.u.u.u.u.u.u.u.u.u.u.u.u.a.a.a.a.u.u.u.c.g.u.a.a.u.u.u.f.f.u.i.a.u.c.g.u.u.u.u.u.u.u.",
"a.a.a.i.n.g.u.u.i.s.a.z X 9.i.i.a.i.a.u.u.u.u.u.u.u.a.a.a.u.u.u.u.u.u.i.i.u.u.u.u.u.a.a.a.u.u.u.u.c.h.a.a.a.g.n.g.u.u.u.u.u.u.u.",
"u.u.u.u.u.u.u.a.j.u.c _ E * M 0.0.t.t.t.t.0.0.t.t.0.0.0.0.0.0.0.0.0.0.w.w.8 9.a.a.u.u.u.u.u.u.u.u.c.h.u.u.u.u.c.g.u.u.u.u.u.u.u.",
"u.u.u.u.u.u.u.u.c.h.z = = o v D D D D D D D D D D D n n n n n n n n n n 3 j 0 7.u.f.u.u.u.u.u.u.u.f.f.u.u.u.u.i.i.u.a.u.g.u.u.u.",
"u.u.u.u.u.u.u.u.x.j.z ` ` # ~.&X*X*X*X*X*X*X*X*X*XOX'.].].]._._._._.]._.5.o < 7.u.u.u.u.u.u.u.u.u.a.u.i.u.u.u.u.u.i.a.f.x.h.u.a.",
"u.u.u.u.u.u.u.u.i.a.z ) ] # `.0XpXpXpXyXyXyXyXyXyX4X,X,X,X=XXX[. X'.'.'.(.A B 9.0.0.7.7.7.7.7.7.7.7.8.0.p.a.u.a.u.u.u.f.c.g.a.u.",
"u.u.u.u.u.u.u.u.u.a.z ] ] # OXyXyXyXyXyXyXyXyXyXyXpXpXyXyX2X=X=X=XXX'.'.`.A + 2 3 2 2 2 2 2 2 * + , + < B 8.7.p.u.u.u.i.g.u.u.u.",
"i.i.k.i.u.u.u.u.u.u.z ] ] # @XyXyXyXyXyXyXyXyXyXyXyXuXuXuXyXpXrX1X=X=X}.`.A I T ~ ) T ~ [ [ ] a p = = k * , m 9.r.p.a.u.u.u.u.u.",
"u.u.u.u.u.u.u.u.u.u.z ] ] # @XyXyXyXyXyXyXyXyXyXyXyXyXyXyXyXyXaXsXsX2X=X XA I.E.Q.E.E.E.E.E.W.W.S.#.&   w u . X B 0.p.u.u.u.u.u.",
"u.u.u.u.c.g.u.u.u.f.c ] ] # @XyXaXyXyXyXyXyXyXuXuXuXuXyXaXsXyXaXyXaXsX>X XA   . . . .     . $ 3.R.J.+.P # E p # X B 7.y.a.a.a.a.",
"u.u.u.g.c.g.u.u.u.c.x ] ] # @XuXsXsXsXuXyX2X>X>X=X-X=X;X=X;X=X&X0XaXsX,X XA y U ( | [ ( ( ( ] q # &.K.$.Q $ h a y o x 7.y.u.u.u.",
"u.u.u.u.f.u.u.u.i.c.x ] ] # OXrX3X1X1X,X1X0XuXyXyXyXyXpXyXyXyXpX2X,X1XXX[.A [ S.3.t } ;.;.A.:.3.*.s *.K.-.E & ` U e + V p.u.c.i.",
"u.u.u.u.a.u.u.a.a.f.c ] ] # }.1X0XyXyXyXyXyXuXyXyXyXyX4X4XeXyXyXpXpXyX>XXXS &.S.p y = % = _ u > y > & *.J.+.w E ] a # B 7.y.c.i.",
"u.u.u.u.u.a.u.u.a.a.z ] ] # @XyXyXyXyXyXyXyXuXyXyX7X5XK f oXuX8X5XpXuX>X:XH W p g E u # 5 s % ,.4.6.= . ;.%.U % W U u - N p.a.u.",
"f.u.y.e.e.e.y.u.a.f.z ] ] # @XyXyXyXyXyXyXyXyXyXdXC.l 5 5 XXpX5.l oX7X,X;XH @.p g E E f . ' = ,.' 1.> # *.J.+.q I ] p # m 7.u.a.",
"a.p.x , O O , V p.f.z ] ] # @XyXyXyXyXyXyXyXyXyXiXZ.6 5 5 XXyXN.8 l A 4X4XH @.p g E E y . ` q ,.' 1.> 2.g U.+.p & E I e O N u.u.",
"u.u.0.1   *   , 9.u.c ] ] # @XyXyXyXyXeXeXeXeX7XyXeXB.5 5 `.yX8XJ 5 5 5X4XH W u g E u # 5 g % ,.4.4.= >.u I.X.P % E ( t . B y.i.",
"u.u.u.4 5   5 O V f.c ] T # @XyXyXyXpXK + + + + .XuXgXK 7 6 XXtXL 5 5 5X4XH 2.T.p 0 # # . s = . . .   :.p H.X.U & E ( p . B 7.p.",
"u.a.e.4 5 6 8 , V p.z | ] # #XyXyXfXH : : : : 5 + |.yXgX<.9 {.G : @ %XyX2XH @.S.Y.u 3.U.T.J.J.J.D.T.U.R.p 3.T.$.w I / p o B 7.p.",
"u.y.z 7 6 6 O C 4     . .   OXaXdX5.5 5 6 {.fX5.; + oXgXK ; + 5 2 #XuXaX4XH p Y / ) o.( ..@.o. .( (  .[ @.& 2.@.e I [ p . B 7.p.",
"i.p.1 5 5 5 O X f { p s a . @XyXdX5.5 5 6 `.yX9XL 5 9 K $XM.; 2 S =XyXaX6XH W O.*.:.u = # # &.A.A.A.S.y q q w &   # #     x 8.p.",
"i.9.3 & = = % % = % | I W % @XuXiXm.5 5 6 /.5Xm.F 6 : (.qXC.6 2 .XpXyXuX<XH # = q w # E a u q ] $.-.u & :.R.#.a y e e e y * x p.",
"a.4 g ] O.O.O.O.} w { U W % @XuXiXm.5 5 5 9 Z 5 .XN.5 6 $XwXN.2 $XyXyXuX<XH e a ! [ Y e U.#.P = =.J.y ;.L.L.K.%.U R [ [ [ d + 9.",
"a.1 + * * * * * % # } I U & @XuXiXm.5 5 5 9 Z 5 .XN.5 l #X5XN.2 $XyXyXuX<XH u d ] ] a e I.+.a q &.J.e 2.L.P.K.$.U R [ [ ] d + 0.",
"u.p.p.w.p.p.0.c p ~ @.I I % @XyXiXm.5 5 5 ).7XN.S 6 5 (.qXV.6 5 .XeXyXuX2XH % & w y # j a u y ! +.+.p = *.T.O.d e e e e e * x p.",
"u.u.a.a.a.f.a.x f } g j a . @XyXdXm.5 5 5 (.yX:XL 5 9 <.%XM.5 5 Z =XyXuX2XH ` #.;.3.u = $ $ &.A.A.S.:.u q = & %   # #     x 8.p.",
"u.a.u.i.u.u.a.d.z           @XaXdXB.5 5 5 (.pX<.5 5 .XhXK 2 5 5 5 $XyXyX2XH t P T ^ o.{ o.} [  .(  . .( { $ Y.$.e W #.p o N r.p.",
"i.a.f.z.i.u.u.u.s.d.c | { # @XyXyXhXJ 5 ; ; + ; ; .XyXfX5.9 .XG 5 * +XuX2XG O.-.G.Y.J.J.J.K.K.L.L.J.K.R.u I.L.+.q E [ u o N 7.p.",
"u.u.f.x.h.u.u.i.u.f.c ] ) . @XyXyXuXiXK + + * + .XpXgXK 5 9 XXtXL 5 : 4X2XG *.D.Y.p # # . _ F.J.J.T.T.R.p Y...I & W [ t o B r.p.",
"u.u.u.g.x.g.u.u.u.j.c ] ] # #XyXyXyXyXeXqXqXqXqXyXwXM.5 5 {.eX5XJ 5 + 4X2XH ] [ w j h u w $ p ( X.X.X.$.q U.X.Q = W ] t o N y.a.",
"u.u.u.i.x.g.u.u.u.u.c ] ] # #XyXyXyXyXyXyXyXyXyXiXC.6 5 5 oXeXm.5 S S 4X6XH @.h g E I E u y # ] S.A.G.3.p H.X.p = W I e < M y.a.",
"u.u.u.i.x.g.u.u.u.j.z ] ] # #XyXyXyXyXyXyXyXyXyXiXC.Z 5 5 oXpX5.Z %X7X>X;XH @.s s E E E r u . ] S.A.D.p *.T.#.& E [ a # B 7.a.a.",
"u.u.u.u.g.u.u.u.a.u.z ] ] # @XyXyXyXyXyXyXyXyXyXyX0X7X5.A +XyX7X7XyXyX>X:XH W p g I E E u w $ a o.+.o.e :.X.P & W U r o V y.a.u.",
"u.u.u.u.u.u.u.u.u.u.z ] ] # |.1X0XyXyXyXyXyXyXyXyXyXyX7X7XeXyXyXpXpXyX;XXXA =.A.g g g u u w ` ;.S.:.s *.J.+.& E ] a * B 7.y.u.u.",
"u.u.u.u.u.u.u.g.u.u.z ] ] # +XrX3X1X1X1X1X0XyXyXyXyXyXyXyXyXyXyX2X,X1XXX[.A ] S.F.u & $ $ | A.A.:.` ;.G.%.Y # ! I u + V p.a.u.u.",
"u.u.u.u.u.u.u.c.i.u.z ] ] # @XyXyXaXaXyXyX2X-X=X=X=X-X-X=X;X=X-XrXuXsX,X XA q U ( [ { { { ( ] w $ =.T.$.Y . g t w + B 7.u.a.u.u.",
"u.u.f.a.u.u.u.c.i.u.z ] ] # @XyXyXyXyXyXyXsXsXuXsXdXsXuXsXsXaXaXuXyXuX,X XA o .   . . . . . . I.P.L.+.P # p u   X V 0.y.u.u.u.u.",
"u.i.c.a.u.u.u.g.u.u.z ] ] # @XyXyXyXyXyXyXyXyXyXyXyXyXyXyXyXyXyXuXdX2X;X XA I.E.E.W.W.W.W.!.Q.!.;.@.&   = k   X V 0.p.a.f.n.h.u.",
"u.g.n.g.u.u.u.u.a.a.z ] ] # @XyXyXyXyXyXyXyXyXyXyXyXyXyXyXpXpXrX,X=X=X}.'.A h ~ ! ] ] ] ] ] ] t p & > y + , C 9.7.y.a.u.f.c.h.u.",
"u.g.c.g.u.u.u.u.a.a.z ] ] # OXyXyXyXyXyXyXyXyXyXyXpXpXpXpX3X>X=X=XXX}.'.[.A < 2 < 2 < < < < 2 + < < < < B 8.7.u.p.u.u.f.u.u.u.u.",
"u.u.u.u.u.u.a.u.u.a.z ] ] # `.eXyXyXyXyXyXyXyXyXyX4X,X,X,X=XoXXX X'.'.'.^.Z B 0.t.e.0.0.0.0.0.0.e.0.0.0.y.u.u.u.u.u.f.c.h.u.u.u.",
"u.u.u.u.u.u.u.u.u.a.z ' ] # ).OXOXOXOXOXOXOXOXOXOXoX_._.^._.^.^.^.~.^.(.K @ < 0.u.i.u.u.u.f.f.f.f.u.u.u.u.u.u.u.u.u.u.c.g.u.u.u.",
"u.u.u.u.u.u.i.u.u.a.z & $ o 8 v v v v v v v v v v v 8 v 8 8 8 8 8 8 6 9 + g 5 8.a.u.u.a.a.a.u.u.u.u.k.g.u.u.u.u.u.u.u.u.u.u.u.u.",
"u.u.u.u.u.u.c.g.u.u.x ' _ + V 0.0.7.p.0.0.0.0.p.p.e.p.t.t.t.t.0.0.0.w.t.e.b V y.f.u.u.u.g.f.u.u.u.u.i.u.a.u.i.u.u.u.u.u.u.u.u.u.",
"u.u.u.u.a.f.c.h.u.a.p.z X q.u.u.u.u.u.u.a.i.a.u.u.u.u.a.a.a.a.u.a.u.u.u.a.d.p.a.a.a.a.u.c.h.u.u.a.u.u.u.u.a.v.i.u.u.u.u.u.u.u.u.",
"u.u.u.u.u.u.f.f.a.a.j.a.s.u.u.u.u.u.u.f.f.c.k.u.u.u.u.a.u.a.u.u.u.u.u.u.a.u.u.u.u.u.u.u.i.f.c.h.u.u.u.u.u.a.i.i.u.u.u.u.u.u.u.u.",
"u.u.u.u.u.u.u.u.u.a.u.u.u.u.u.u.u.u.u.a.j.c.h.u.u.u.u.i.u.u.u.f.c.j.u.i.u.f.f.c.h.u.u.u.u.u.n.n.h.u.u.u.u.a.u.i.a.u.u.u.u.u.u.u.",
"u.u.g.u.u.a.u.c.g.a.u.u.f.f.u.i.a.u.u.u.a.u.u.u.u.u.c.h.g.u.u.f.c.j.u.u.u.u.f.c.h.f.u.u.u.u.n.b.h.u.u.u.u.u.u.x.j.u.u.u.l.h.u.u.",
"u.f.l.g.u.a.u.c.h.u.u.u.k.g.u.i.a.h.u.u.a.a.f.i.u.u.g.n.h.a.u.u.f.u.u.u.u.u.u.h.z.k.u.u.u.u.n.b.g.u.u.u.u.u.j.z.g.u.u.u.i.c.h.i.",
"u.u.g.c.g.u.u.g.c.g.a.u.f.h.u.u.u.c.u.u.a.u.c.g.a.u.u.n.h.a.u.u.u.f.u.u.u.u.u.i.x.h.u.u.u.u.c.h.u.a.u.u.u.u.c.h.u.u.u.u.i.c.h.i.",
"u.a.i.z.g.u.a.u.c.g.a.a.f.x.g.a.f.b.g.u.u.i.c.g.a.a.u.n.h.a.u.u.i.z.g.u.u.u.u.u.z.h.u.u.u.u.u.i.u.a.u.u.u.f.z.j.u.u.i.u.u.j.u.u.",
"u.u.i.v.u.u.u.u.i.u.u.u.f.c.g.u.f.c.g.u.u.u.i.u.u.a.u.f.u.u.a.u.i.x.g.u.u.u.a.f.c.h.u.u.u.u.u.u.u.l.g.a.u.c.h.u.a.u.l.h.a.a.u.u.",
"u.u.i.i.u.u.u.u.u.u.u.u.u.g.u.u.u.g.u.u.u.u.u.u.u.u.u.u.u.u.u.u.u.g.u.u.u.u.a.u.g.i.u.u.u.u.u.u.u.l.g.a.u.g.u.u.u.u.l.h.a.u.u.u.",
"u.u.u.u.u.u.u.u.u.u.u.u.u.a.u.u.u.u.u.u.u.u.u.u.u.u.u.u.u.u.u.u.u.u.u.u.u.u.u.u.u.u.u.u.u.u.u.u.u.f.u.u.u.u.u.u.u.u.g.u.u.u.u.u.",
"u.u.a.a.u.u.u.u.u.u.u.u.a.a.u.u.u.u.u.u.u.u.u.u.u.u.u.u.u.u.u.a.u.u.u.u.u.u.u.u.u.u.u.u.u.u.u.u.u.u.u.u.u.u.u.u.f.u.a.u.u.u.u.u."
};
