/* XPM */
static char *_33dc558c6d24e98d7259fc65610984cEFAWhttDgcC8zwQE[] = {
/* columns rows colors chars-per-pixel */
"64 64 228 2 ",
"   c #050304",
".  c #0B0303",
"X  c #04040C",
"o  c #0A0509",
"O  c #07090D",
"+  c #0D0C0D",
"@  c #0F0B07",
"#  c #120604",
"$  c #1A0603",
"%  c #150906",
"&  c #1B0A06",
"*  c #120B0C",
"=  c #1B0C09",
"-  c #120709",
";  c #0F110E",
":  c #12110D",
">  c #1C110C",
",  c #060A12",
"<  c #0C0B12",
"1  c #090F1D",
"2  c #120E12",
"3  c #110F18",
"4  c #0B121A",
"5  c #131313",
"6  c #15151C",
"7  c #17181D",
"8  c #1B1B1A",
"9  c #1B1717",
"0  c #220B06",
"q  c #240E0A",
"w  c #2A0E0A",
"e  c #2C0F05",
"r  c #340F09",
"t  c #25110C",
"y  c #2C110A",
"u  c #2F150B",
"i  c #34140C",
"p  c #3B150C",
"a  c #39190E",
"s  c #361409",
"d  c #281613",
"f  c #351911",
"g  c #3B1B12",
"h  c #391815",
"j  c #260F12",
"k  c #23221E",
"l  c #0A1325",
"z  c #0C1B2C",
"x  c #091527",
"c  c #1A1C22",
"v  c #131926",
"b  c #1D2125",
"n  c #16212C",
"m  c #0F243B",
"M  c #0D2337",
"N  c #112234",
"B  c #11253C",
"V  c #182837",
"C  c #262622",
"Z  c #2B2723",
"A  c #2C2A25",
"S  c #22242A",
"D  c #2D2B28",
"F  c #322D29",
"G  c #312E27",
"H  c #34342C",
"J  c #3C3B34",
"K  c #383834",
"L  c #44150C",
"P  c #441A0D",
"I  c #4A1A0C",
"U  c #471409",
"Y  c #5C1E0D",
"T  c #541D0D",
"R  c #431D12",
"E  c #4B1C12",
"W  c #411612",
"Q  c #541F13",
"!  c #5B1F10",
"~  c #651F0C",
"^  c #621D11",
"/  c #5D230C",
"(  c #57250D",
")  c #452114",
"_  c #4C2213",
"`  c #492718",
"'  c #552312",
"]  c #5C2312",
"[  c #5B2419",
"{  c #5C2A1A",
"}  c #552719",
"|  c #62220C",
" . c #68280B",
".. c #732B0E",
"X. c #622412",
"o. c #612913",
"O. c #6C2B13",
"+. c #642D1C",
"@. c #682617",
"#. c #732C13",
"$. c #772F17",
"%. c #64321C",
"&. c #6C361D",
"*. c #6B3319",
"=. c #7C3314",
"-. c #7A3619",
";. c #7C3A1C",
":. c #743619",
">. c #4B3525",
",. c #413D36",
"<. c #543B26",
"1. c #6B3522",
"2. c #7A3B24",
"3. c #5C4127",
"4. c #46443B",
"5. c #60402C",
"6. c #0E2E4C",
"7. c #0E2C45",
"8. c #132B44",
"9. c #112E4D",
"0. c #182C44",
"q. c #0E314D",
"w. c #12314E",
"e. c #0D2E50",
"r. c #122E50",
"t. c #0F3356",
"y. c #0E365D",
"u. c #0D385D",
"i. c #113254",
"p. c #11365C",
"a. c #11385C",
"s. c #173857",
"d. c #0D3661",
"f. c #0E3962",
"g. c #0E3A65",
"h. c #0D3A63",
"j. c #103661",
"k. c #123B64",
"l. c #123F6A",
"z. c #0F446D",
"x. c #12416A",
"c. c #12426C",
"v. c #13436C",
"b. c #124167",
"n. c #0E4773",
"m. c #124472",
"M. c #4C4B42",
"N. c #4B4743",
"B. c #53524A",
"V. c #524E44",
"C. c #605E53",
"Z. c #656358",
"A. c #717064",
"S. c #8A3A1A",
"D. c #873916",
"F. c #963F1C",
"G. c #863922",
"H. c #8B431C",
"J. c #85431F",
"K. c #94431C",
"L. c #9A431C",
"P. c #9A471A",
"I. c #A54E1D",
"U. c #834324",
"Y. c #8B4422",
"T. c #884528",
"R. c #944322",
"E. c #964725",
"W. c #AA532B",
"Q. c #AB5427",
"!. c #AB5331",
"~. c #AC4F28",
"^. c #998F7F",
"/. c #9C8E81",
"(. c #958D85",
"). c #9A9487",
"_. c #8F8D81",
"`. c #A19384",
"'. c #A59C8C",
"]. c #AA9C8B",
"[. c #A79688",
"{. c #AA9E90",
"}. c #A49E93",
"|. c #ACA18D",
" X c #A4A18C",
".X c #AEA292",
"XX c #AAA797",
"oX c #B2A692",
"OX c #B3AB99",
"+X c #BCB29D",
"@X c #B4B29E",
"#X c #BCB6A2",
"$X c #BBB7A5",
"%X c #B3ADA2",
"&X c #C4BA9F",
"*X c #C2B6A0",
"=X c #C6BCA5",
"-X c #C9BEA4",
";X c #CABEA8",
":X c #C6BCAA",
">X c #CCC1A6",
",X c #CEC3AA",
"<X c #CFC8AC",
"1X c #D1C6AA",
"2X c #D3CAAD",
"3X c #D8CDAF",
"4X c #D3CBB2",
"5X c #D4CFBC",
"6X c #D5C9B2",
"7X c #DBD4BC",
"8X c #D6D1BB",
"9X c #C7C4B1",
"0X c #E3D9BD",
"qX c #DEDAC2",
"wX c #DBD5C1",
"eX c #E4DBC2",
"rX c #E9DFC2",
"tX c #E3DFC9",
"yX c #EDE4C5",
"uX c #EEE5C9",
"iX c #EFE9CB",
"pX c #E7E1C7",
"aX c #F0E5C6",
"sX c #F0E7C9",
"dX c #F1E8CC",
"fX c #EEE9D3",
"gX c #F2EAD3",
"hX c #F1EBDA",
/* pixels */
"y.y.y.y.y.p.y.j.y.y.y.y.y.y.y.y.y.y.y.y.y.y.y.y.y.y.y.y.y.y.y.y.p.y.y.y.y.y.y.y.y.y.y.y.y.y.y.y.y.y.p.p.y.y.y.y.y.y.y.y.p.p.y.y.",
"y.y.y.y.y.f.y.y.y.y.y.y.y.y.d.y.y.y.y.y.y.y.y.y.y.y.y.y.y.y.y.y.y.y.y.y.y.y.y.y.y.y.y.y.y.y.y.y.y.y.p.y.y.y.y.y.y.y.y.y.y.y.y.y.",
"y.y.y.p.g.l.y.y.y.y.f.y.p.f.l.y.y.y.y.y.y.y.u.f.y.p.y.y.y.y.f.y.y.y.y.y.y.y.y.y.y.y.y.y.y.y.f.y.y.y.f.y.y.y.y.y.y.y.y.y.u.u.y.y.",
"y.y.p.p.g.l.y.p.y.h.x.y.p.f.l.y.y.y.y.y.y.y.h.x.d.p.y.y.y.f.c.u.y.p.y.y.d.y.p.y.y.u.y.y.y.f.v.d.y.f.v.d.y.y.y.u.y.y.y.y.b.u.y.y.",
"y.y.j.y.y.u.y.y.j.z.d.y.y.y.p.y.u.y.y.y.y.y.g.z.y.y.y.y.y.f.z.u.y.y.p.g.m.y.p.p.f.c.u.y.y.f.n.d.p.f.c.d.p.p.f.v.y.p.y.f.z.u.p.y.",
"u.g.x.u.y.y.y.y.g.c.y.y.y.y.p.y.g.v.y.y.y.y.g.c.u.y.y.y.y.y.d.y.y.y.p.g.m.y.y.p.f.x.y.p.y.y.c.y.y.y.h.d.y.p.f.x.f.y.y.f.x.f.y.y.",
"u.g.c.u.y.y.y.f.z.j.y.y.y.y.y.f.n.m.y.y.y.y.k.z.h.y.y.y.y.y.y.d.y.y.p.g.m.f.y.y.u.d.p.p.y.y.h.p.u.y.f.l.y.y.y.g.c.y.p.y.f.l.d.y.",
"y.y.g.l.y.y.y.j.c.y.y.y.y.y.y.g.n.m.y.y.y.y.d.g.x.y.y.y.y.y.j.c.d.y.y.f.g.v.y.y.y.y.y.p.y.y.y.p.u.y.d.d.y.y.p.f.v.y.p.y.y.f.y.y.",
"y.y.y.y.y.y.y.p.u.y.p.y.y.y.y.g.m.m.y.y.y.y.y.h.c.d.d.y.u.y.j.x.d.y.y.y.u.y.y.y.y.g.c.p.p.y.y.y.y.y.y.y.y.y.p.y.y.y.y.y.y.y.y.y.",
"y.y.y.y.y.y.y.y.u.u.p.y.y.y.y.y.g.v.u.u.y.y.y.y.y.y.y.p.y.y.y.y.y.y.p.y.p.y.y.y.y.k.x.d.d.y.y.y.y.y.y.a.p.j.p.p.d.d.y.y.y.y.y.y.",
"y.y.y.y.y.y.y.y.u.b.p.y.y.y.y.p.y.y.g.v.y.p.p.p.p.i.s.p.y.y.y.p.y.p.p.p.p.y.y.y.y.p.u.p.y.y.y.y.y.y.0.X l i.p.y.g.c.d.p.y.y.y.y.",
"y.y.y.y.y.y.y.y.y.u.y.p.y.u.y.y.y.y.d.f.y.y.y.d.t.B v w.r.q.9.9.9.r.r.r.r.i.w.i.i.9.9.9.9.i.9.9.9.B + ) ` z y.y.f.x.y.y.y.y.y.y.",
"y.y.y.y.y.y.y.y.y.y.y.y.f.l.y.y.y.y.p.p.p.y.y.p.7.5 f + 7 7 7 7 6 6 c c c 7 c c c c c c c c c c c 7 . $ % l p.y.y.u.y.y.y.y.y.y.",
"y.y.y.f.v.y.y.y.y.y.y.y.y.y.y.d.d.d.d.y.y.y.u.y.9., @ J )./.^./././.`./.`.`.OX+X+X+X+X+X+X+X+X+X+X_.# ' ` l p.y.y.y.y.y.y.y.y.y.",
"y.y.y.g.c.d.y.y.y.y.y.t.9.9.9.w.9.9.9.9.9.9.w.r.9.N C /.].].]..X.XOX=X,X,X,X4XyXyXyXyXyXyXyXyXpXeX'.# ' ' l p.y.y.p.y.y.y.y.y.y.",
"y.y.y.y.d.y.y.i.y.6.7.N < , < < + 2 < < < < 2 < 2 < Z {.].|.oX=X;X>X3XyXyXyXyXyXyXyXyXyXyXyXyXyXyX+X# ' ' l p.p.y.y.y.y.f.c.f.y.",
"y.g.c.d.y.p.t.6.8.V , + t > % i r ' ' ' ' ' ' Q Q g Z {.|.=X=X,XrXyXyXyXyXyXyXyXyXyXyXyXyXyXyXyXyX#X# ' } l p.p.y.y.y.y.f.m.f.y.",
"y.g.m.d.p.i.9.B X . j = . & +.-.~.!.~.Q.Q.Q.Q.W.W.U.Z .X;X2XdXuXyXyXyXyXyXyXyXyXyXyXyXyXyXyXyXyXyX#X# ' } l y.y.f.y.y.y.p.c.u.y.",
"y.y.y.y.t.9.B X . y a % L O.P.I.U.. . . . . .   . . Z .X,XuXyXuXsXsXsXsXyXsXdXsXuXsXsXyXyXyXyXyXyX#X# ' ' l y.u.v.y.y.y.p.d.y.y.",
"y.y.p.y.6.N + 0 r f . U #.R.*.$ 0 ' / [ [ [ [ / I 0 Z .X,XsXuXrX-X;X;X;X-X-X;X;X;X-X2XyXyXsXsXyXyX#X# ' ' l y.u.v.y.y.y.y.y.y.y.",
"y.y.p.i.B + y U Q # L $.H.-._ ;.S.S.} $ $ % u G.D.} Z {.oX1X,X2XyXyXyXyXyXyXpXyXpXyX0X1X1X1X1X3XrX@X# ' ' l y.y.f.y.y.y.y.y.y.y.",
"y.y.t.6.N * p ' R & O.K.&.a ;.D.=._ 0 y y g f f S.*.Z oX;XyXyXyXyXyXrX7X7XyXyXyXyXyXyXyXyXyXyX0X1X X# ' ' l y.y.y.y.y.y.y.y.y.y.",
"y.p.t.B o e I E % L ..;.w ] O.| p $ 0 y R E P f i E F :X>XyXpX7X7XyX@XZ 4.7X0XyXyXyXyXyXyXyXyXyXyX#X# ' ' l y.p.y.y.y.f.y.y.y.y.",
"p.p.6.N # p [ R % @.R.&.i S.D.D.' . y e R R R a a +.F ;X>X7X%XC 4.pXOX5 5 C Z.iXyXyXyXyXyXyXyXyXyX#X# ' ' l j.y.y.y.f.c.u.y.y.y.",
"p.t.m < w P E = i ..H.a 2.H.S.D.' # t y R I R f g +.F 6X6XD A 5 M.rXOX5 5 7 Z.iXyXyXyXyXyXyXyXyXyX#X# ' ' x y.y.y.y.f.c.u.y.y.y.",
"p.t.M o r ' E = W ..Y.0 #......./ i $ q u g h 0 ] ' F 2X4X+ 5 H 5XeX}.5 5 N.wXpXqXqXqXqXeXyXyXyXyX#X# ' ' x j.y.y.y.f.c.f.y.y.y.",
"i.e.N o r ] E & P  .T.i E.R.R.K.K.G.) . # # i T.F.&.F 2X6X5 5 K tXoX8 5 J gXpXXX@ * + ; J iXuXyXyX#X. ' ' x d.y.u.y.y.h.c.d.y.y.",
"i.6.M o y ] R q O.P.U.y E.L.K.P.L.K.L.L.L.K.T.H.=.o.F 2XuX@X* 5 F XX8 4.fXyXXX; ; @ ; ; 5 H hXyXyX#X# [ } x s.a.y.y.y.u.z.d.p.u.",
"i.e.M o i @.E w #.T.$ [ / | | / | / { X.[ X.~ Y L r F 2XyXyX$X: 5 5 5 J hXOX5 5 ,.pX).5 5 5 V.dXaX#X    .     l s.p.y.y.u.y.p.y.",
"i.7.z . . % # . % & = q y ;.D.S.S.%.$ $ = u 2.-.@._ F 2XuXyX=XC 5 5 N.%X,.8 5 K :XyX).5 5 5 M.dXyX#Xo p h g { d z p.d.p.p.p.y.y.",
"i.z * w w w w w s o.R.&.= i O.O.Q t y p h % t 0 & % F 2XuXyXrX X5 7 C.qX).5 7 A B.7X_.5 5 5 M.iXyX#X% P P +.Q i x 9.i.i.q.i.i.y.",
"9.+ s ' ] ] T I #.L.I.P.1.w K.%.0 p O.U.w p ' ' s y F <XuXyXyX$X2 B.5X$Xk 5 B.XX5 C 8 5 5 5 M.iXuX#X% I U { % % * * * * * + 1 p.",
"8.+ s ] ] ] T I $.L.P.P.-.t K.*.= L @.U.w L ] Q p w F <XuXyXyX$X2 B.wX$X8 5 B.XX5 C c 5 5 5 M.iXuX#X% E I [ q { o.o.o.o.' f 4 p.",
"i.z * t w w y t p @.E.;.& y =.#.' 0 y p g % 0 q = # F <XuXyXyXXX2 7 Z.qX).: 7 D M.4X(.9 5 5 M.iXuX#X% E U } % = % % = = % 3 8.u.",
"i.7.z . . # o . % 0 q q t D.S.S.S.%.- % = y ;.:.X.E F 6XaXyX=XD 5 : N.$XJ 8 5 K 9XyX'.9 5 5 4.dXyX#Xo p a a [ d X O 5 5 5 4 i.u.",
"i.6.N o i ] P w +.1.% { ] | / / | X.+. ./ X.( ^ U i F 6XaXuX$X5 5 + ; ,.gXOX@ ; 4.fX}.9 5 5 4.dXaX+X  . .     4 V O 7 7 6 l t.y.",
"i.6.N o i ^ P 0 O.E.2.i E.Y.K.F.K.K.K.R.Y.2.y T.D.+.F 2XyX%X@ : F }.8 ,.gXpX X+ 5 : : : : F fXyXyX$X# ' } l i.B , 7 9 5 4 w.p.y.",
"i.6.N o i / W % I ..J.i ;.. . . . & a . # # > i R.1.F 6X5X5 5 K tXXX9 6 J gXuXXX@ + + + J pXyXyXyX#X$ Y ' x d.B O 5 . 5 4 y.y.y.",
"u.t.N o r / W % L ..U.u :.= 3.3.>.% f 5 # y R f y E F 6X5X5 5 H 8XpX'.5 5 B.eXyX7XeXeXeXeXyXyXyXyX#X# ' ' x y.8.,   *   1 9.y.y.",
"y.y.M O w U E % i O.Y.g 1.= <.` >.q _ o t R R f a +.F 6X4XZ k 7 B.pXXX5 5 7 A.iXyXyXyXyXyXyXyXyXyX#X# ' ' l d.i.B , O O , z i.p.",
"p.y.6.n $ a ' P 0 O.K.&.% > <.` >.= ` o d R R f a +.G ;X,X7XOXk 4.pXoX5 5 k Z.dXyXyXyXyXyXyXyXyXyX#X# ' ' l d.p.y.t.w.w.w.t.y.d.",
"y.p.i.M - y I E % I $.-.o : 5.3.>.% a 5 # y R f i E D :X>XuXyX4X8XuXOXd J 5X7XyXyXuXyXyXyXyXyXyXyX#X# ' ' l p.p.y.y.p.y.y.y.y.y.",
"u.x.t.6.N % p ' R q O.K.%.& : t > y ) = % = t i D.%.D oX>XyXyXyXyXyXrX6X4XyXyXyXyXuXyXpXpXyXyX0X1X X# ' ' x d.p.p.y.y.p.y.y.y.y.",
"h.x.y.i.B + w I _ & R =.K.&.a :.2.;.S.-.-.{ r 2.D.] Z {.oX1X,X2XyXyXyXyXyXpXpXpXpXuX0X1X,X1X1X3XrX+X# ' } z c.u.y.y.y.d.y.y.y.y.",
"y.y.y.t.6.z o t p h $ W #.K.%.# 0 ' / / / ] } / I t Z .X,XsXsXrX&X;X;X;X;X;X-X;X>X>X2XyXuXuXuXuXuX#X# ' } z v.y.y.y.f.v.f.y.y.y.",
"p.p.p.p.t.6.N X $ a R $ L O.K.E.2.$ .     . . . .   Z .X>XsXyXyXsXyXsXsXyXuXuXuXuXyXyXyXyXyXyXyXyX#X# ' ' x d.y.y.y.u.v.y.y.y.y.",
"y.y.y.y.y.i.9.N X . y q   & @.D.Q.Q.W.W.W.W.W.!.W.U.Z .X;X2XsXsXsXyXyXyXyXyXyXyXyXyXyXyXyXyXyXyXyX#X# ' ' l y.y.y.y.y.y.y.y.y.y.",
"y.y.y.y.y.p.i.e.8.n , * j = = i p ' ] ] ! Y ( ! Y P Z '.|.=X;X1XrXyXpXuXuXuXyXyXyXyXyXyXyXyXyXyXyX#X# ' ' l y.y.y.y.y.y.u.l.u.u.",
"y.y.y.f.u.y.y.y.i.6.7.N < + , + * 2 2 2 2 2 2 3 2 + Z '.].].oX=X;X-X2XpXpXyXyXyXyXyXyXyXyXyXyXyXyX+X# ' ' l p.y.y.y.y.y.y.y.y.y.",
"y.p.f.x.d.y.y.y.p.y.p.i.9.7.6.6.6.6.6.6.6.6.9.9.8.N Z ).].].]..X].oX=X,X,X,X4XpXpXpXpXpXpXyXyXyX0X'.% ' ( l p.u.y.y.y.y.y.y.y.y.",
"p.y.g.c.d.p.u.y.y.y.y.y.u.y.p.y.y.y.y.y.y.y.y.y.6., o 4.`.[.`.`.`.`.[.[.[.].+X*X*X*X*X*X*X*X*X*X&X^.% _ _ l j.c.y.y.y.y.y.y.y.y.",
"y.y.y.f.y.p.y.u.u.y.y.y.y.d.d.y.y.y.y.y.y.y.d.y.6.9 h 3 b b b b b b b b b b S S S S S S S S S S S c . = = l g.c.y.y.y.y.y.y.y.y.",
"y.y.y.y.y.y.y.f.v.y.y.y.y.g.x.y.y.y.y.y.y.y.y.p.p.8.6 q.q.9.9.9.9.9.9.9.9.9.9.r.r.9.9.r.r.r.r.9.9.m * R ) x y.j.p.y.y.y.y.y.y.y.",
"y.y.y.y.y.y.y.f.m.f.p.p.p.g.x.y.y.y.y.p.p.p.y.y.y.y.y.u.u.y.y.y.y.y.y.p.p.p.y.p.y.y.y.y.y.p.u.p.u.u.8.X l p.a.u.y.y.f.m.u.p.p.p.",
"y.y.y.y.y.y.y.f.v.y.p.u.y.d.d.y.y.y.p.p.y.f.v.y.y.y.p.p.p.p.y.y.y.y.y.y.y.y.y.y.y.y.y.y.y.j.u.p.y.d.p.s.s.p.y.y.y.y.f.v.u.y.y.y.",
"y.y.y.y.y.y.j.c.u.y.y.y.y.y.y.y.y.y.y.y.y.y.y.y.y.y.p.y.d.d.y.y.y.y.p.y.u.y.y.y.y.g.x.u.y.k.c.y.y.y.y.u.u.y.y.y.y.y.y.y.y.y.y.y.",
"y.y.y.f.y.y.j.c.u.y.y.p.u.y.y.y.y.y.f.c.u.y.y.y.y.y.u.y.h.c.y.y.f.y.y.f.v.y.y.y.y.g.c.f.y.f.z.y.y.y.y.y.u.u.y.a.y.y.y.y.f.k.f.y.",
"p.y.f.c.u.p.d.d.y.y.y.k.c.d.y.y.y.y.f.c.h.y.y.p.y.f.c.y.d.c.y.h.c.d.y.g.m.y.y.y.y.g.c.h.y.y.y.y.y.y.p.g.c.y.u.c.h.y.p.y.y.p.y.y.",
"p.y.f.c.u.p.y.y.y.y.y.g.z.d.p.y.y.y.y.f.x.y.y.p.y.f.n.y.p.g.y.f.c.d.y.g.m.f.y.y.y.f.x.h.y.y.y.y.y.p.p.g.z.y.y.g.x.u.y.d.y.y.y.y.",
"p.y.g.c.y.p.y.y.y.y.y.f.z.d.y.y.y.y.y.f.v.y.y.y.y.f.m.y.p.y.y.y.u.y.y.y.g.v.y.y.p.y.g.x.y.y.y.y.y.d.y.g.z.y.p.k.v.y.y.v.d.y.y.y.",
"y.y.y.g.v.u.d.y.y.y.y.j.g.l.y.y.y.y.y.y.d.y.y.y.y.f.m.u.y.y.y.p.y.y.y.y.d.v.y.y.p.y.y.u.y.y.y.y.u.b.y.f.l.y.p.y.d.y.f.v.y.y.y.y.",
"y.y.y.p.g.g.y.y.y.y.y.y.y.y.y.y.y.y.y.y.y.y.y.y.y.y.g.v.y.y.y.y.y.y.y.y.y.p.y.y.y.y.y.y.y.y.y.y.y.u.y.u.u.y.y.y.y.y.y.a.y.y.y.y.",
"y.y.y.y.y.u.y.y.y.y.y.y.y.y.y.y.y.y.y.y.k.y.y.y.y.y.y.u.y.y.y.y.y.y.y.y.y.y.y.y.y.y.y.y.y.y.y.y.y.y.y.y.y.y.y.y.y.y.y.y.y.y.y.y.",
"y.y.y.y.y.y.y.y.y.y.y.y.y.y.y.y.y.y.y.y.y.y.y.y.y.y.y.y.y.y.y.y.y.y.y.y.y.y.y.y.y.y.y.y.y.y.y.y.y.y.y.y.y.y.y.y.y.y.y.y.y.y.y.y."
};
