/* XPM */
static char *_8593c0c2b3f476390225aacb15828accvfCQhUPcTa48Q5l[] = {
/* columns rows colors chars-per-pixel */
"64 64 228 2 ",
"   c #050304",
".  c #0B0303",
"X  c #04040C",
"o  c #0A0509",
"O  c #07090D",
"+  c #0D0C0D",
"@  c #0F0B07",
"#  c #120604",
"$  c #1A0603",
"%  c #150906",
"&  c #1B0A06",
"*  c #120B0C",
"=  c #1B0C09",
"-  c #120709",
";  c #0F110E",
":  c #12110D",
">  c #1C110C",
",  c #060A12",
"<  c #0C0B12",
"1  c #090F1D",
"2  c #120E12",
"3  c #110F18",
"4  c #0B121A",
"5  c #131313",
"6  c #1B1917",
"7  c #15151C",
"8  c #17181D",
"9  c #1B1B1A",
"0  c #1B1517",
"q  c #220B06",
"w  c #240E0A",
"e  c #2A0E0A",
"r  c #2C0F05",
"t  c #340F09",
"y  c #25110C",
"u  c #2C110A",
"i  c #2F150B",
"p  c #34140C",
"a  c #3B150C",
"s  c #39190E",
"d  c #361409",
"f  c #281613",
"g  c #351911",
"h  c #3B1B12",
"j  c #391815",
"k  c #260F12",
"l  c #23221E",
"z  c #0A1325",
"x  c #0C1B2C",
"c  c #091527",
"v  c #1A1C22",
"b  c #131926",
"n  c #1D2125",
"m  c #16212C",
"M  c #0F243B",
"N  c #0D2337",
"B  c #112234",
"V  c #11253C",
"C  c #182837",
"Z  c #262622",
"A  c #2B2723",
"S  c #2C2A25",
"D  c #22242A",
"F  c #2D2B28",
"G  c #322D29",
"H  c #312E27",
"J  c #34342C",
"K  c #3C3B34",
"L  c #383834",
"P  c #44150C",
"I  c #441A0D",
"U  c #4A1A0C",
"Y  c #471409",
"T  c #5C1E0D",
"R  c #541D0D",
"E  c #431D12",
"W  c #4B1C12",
"Q  c #411612",
"!  c #541F13",
"~  c #5B1F10",
"^  c #651F0C",
"/  c #621D11",
"(  c #5D230C",
")  c #57250D",
"_  c #452114",
"`  c #4C2213",
"'  c #492718",
"]  c #552312",
"[  c #5C2312",
"{  c #5B2419",
"}  c #5C2A1A",
"|  c #552719",
" . c #62220C",
".. c #68280B",
"X. c #732B0E",
"o. c #622412",
"O. c #612913",
"+. c #6C2B13",
"@. c #642D1C",
"#. c #682617",
"$. c #732C13",
"%. c #772F17",
"&. c #64321C",
"*. c #6C361D",
"=. c #6B3319",
"-. c #7C3314",
";. c #7A3619",
":. c #7C3A1C",
">. c #743619",
",. c #4B3525",
"<. c #413D36",
"1. c #543B26",
"2. c #6B3522",
"3. c #7A3B24",
"4. c #5C4127",
"5. c #46443B",
"6. c #60402C",
"7. c #0E2E4C",
"8. c #0E2C45",
"9. c #132B44",
"0. c #112E4D",
"q. c #182C44",
"w. c #0E314D",
"e. c #12314E",
"r. c #0D2E50",
"t. c #122E50",
"y. c #0F3356",
"u. c #0E365D",
"i. c #0D385D",
"p. c #113254",
"a. c #10355D",
"s. c #11365C",
"d. c #11385C",
"f. c #173857",
"g. c #0E3661",
"h. c #0D3661",
"j. c #0E3961",
"k. c #0D3A63",
"l. c #103661",
"z. c #123B64",
"x. c #123F6A",
"c. c #0F446D",
"v. c #13436C",
"b. c #124167",
"n. c #0E4773",
"m. c #124472",
"M. c #4C4B42",
"N. c #4B4743",
"B. c #53524A",
"V. c #524E44",
"C. c #605E53",
"Z. c #656358",
"A. c #717064",
"S. c #8A3A1A",
"D. c #873916",
"F. c #963F1C",
"G. c #863922",
"H. c #8B431C",
"J. c #85431F",
"K. c #94431C",
"L. c #9A431C",
"P. c #9A471A",
"I. c #A54E1D",
"U. c #834324",
"Y. c #8B4422",
"T. c #884528",
"R. c #944322",
"E. c #964725",
"W. c #AA532B",
"Q. c #AB5427",
"!. c #AB5331",
"~. c #AC4F28",
"^. c #998F7F",
"/. c #9C8E81",
"(. c #958D85",
"). c #9A9487",
"_. c #8F8D81",
"`. c #A19384",
"'. c #A59C8C",
"]. c #AA9C8B",
"[. c #A79688",
"{. c #AA9E90",
"}. c #A49E93",
"|. c #ACA18D",
" X c #A4A18C",
".X c #AEA292",
"XX c #AAA797",
"oX c #B2A692",
"OX c #B3AB99",
"+X c #BCB29D",
"@X c #B4B29E",
"#X c #BCB6A2",
"$X c #BBB7A5",
"%X c #B3ADA2",
"&X c #C4BA9F",
"*X c #C2B6A0",
"=X c #C6BCA5",
"-X c #C9BEA4",
";X c #CABEA8",
":X c #C6BCAA",
">X c #CCC1A6",
",X c #CEC3AA",
"<X c #CFC8AC",
"1X c #D1C6AA",
"2X c #D3CAAD",
"3X c #D8CDAF",
"4X c #D3CBB2",
"5X c #D4CFBC",
"6X c #D5C9B2",
"7X c #DBD4BC",
"8X c #D6D1BB",
"9X c #C7C4B1",
"0X c #E3D9BD",
"qX c #DEDAC2",
"wX c #DBD5C1",
"eX c #E4DBC2",
"rX c #E9DFC2",
"tX c #E3DFC9",
"yX c #EDE4C5",
"uX c #EEE5C9",
"iX c #EFE9CB",
"pX c #E7E1C7",
"aX c #F0E5C6",
"sX c #F0E7C9",
"dX c #F1E8CC",
"fX c #EEE9D3",
"gX c #F2EAD3",
"hX c #F1EBDA",
/* pixels */
"u.u.u.u.u.u.u.u.u.u.u.u.u.u.u.u.u.u.u.u.u.u.u.u.u.u.i.i.u.u.u.s.a.i.i.u.u.u.u.a.h.u.u.u.u.u.u.i.u.u.u.u.u.s.u.u.u.u.u.u.u.u.u.u.",
"u.u.u.u.s.u.g.u.u.u.u.u.u.u.u.j.j.i.u.u.u.u.u.u.u.u.u.a.a.u.p.1 4 9.p.y.a.u.u.p.u.u.u.u.u.u.u.i.u.u.u.u.u.s.u.u.j.u.u.u.u.u.u.u.",
"a.u.i.i.i.j.x.j.u.u.u.u.u.u.u.v.m.v.h.u.u.u.u.u.u.u.g.g.u.a.p.+ g 3 1 z e.u.0.x y.u.u.u.u.u.u.x.u.u.u.u.u.s.u.u.x.a.u.u.u.u.u.u.",
"a.u.i.b.c.v.j.u.u.u.u.u.u.u.u.j.j.a.s.u.u.u.u.i.i.j.v.c.i.s.w.* ] % 5 5 4 4 1 , e.u.u.u.i.u.u.i.u.u.u.u.u.i.i.u.j.u.u.g.u.u.u.u.",
"u.u.u.u.j.j.u.u.u.u.a.u.u.u.u.u.u.u.u.u.u.u.j.v.v.v.k.i.u.a.p.* O.& 5 6 5 5 o O e.u.a.g.v.v.u.u.u.u.u.u.u.m.v.u.u.u.g.v.v.d.u.u.",
"u.u.u.u.u.u.s.s.u.u.g.u.u.u.u.u.u.u.u.u.u.u.u.j.j.j.u.u.u.g.p.* O.& 5 6 6 . * O e.s.u.u.j.j.u.u.u.u.u.u.u.j.j.u.u.s.u.u.j.u.u.u.",
"u.u.u.u.s.u.u.u.u.g.v.v.i.u.a.u.u.u.u.u.u.u.u.u.u.u.u.u.s.s.0.* O.% O O 8 5 o , y.u.u.u.u.u.u.u.u.u.u.u.u.u.u.u.u.u.i.u.u.u.u.u.",
"u.u.u.u.u.j.v.v.u.g.k.j.u.u.u.u.u.j.v.v.j.u.u.u.u.u.i.u.f.x z * O.% X C , O , V u.u.s.u.u.u.u.u.u.u.u.u.a.u.u.u.u.k.v.v.g.u.u.u.",
"u.u.u.i.v.v.k.j.u.a.u.u.u.u.u.a.a.u.i.i.u.u.a.u.u.u.u.d.z f p % } = f 4 V V 9.p.a.a.a.i.u.u.u.u.u.i.v.v.z.i.u.u.d.v.k.z.u.u.u.u.",
"u.u.u.u.j.j.u.s.s.a.a.u.a.a.a.a.a.u.u.u.u.u.u.l.u.l.g.f.o } ~ # w % {   p.g.u.g.g.a.g.v.v.g.u.u.a.a.l.k.u.d.u.u.u.i.u.s.a.u.u.u.",
"u.u.u.u.a.a.u.u.u.l.p.x z z z z z z z z z z z z z z c z   g @.} { | p   z c z z z z z x x z z z z z z z z s.s.u.i.u.u.u.u.u.u.u.",
"u.u.u.u.s.u.u.u.u.s.z _ % ' ] ] ] ] ] ] ] ] ] ] ] ] ] | . j I I U I s . | ] ] ] ] ] ] ] ] ] ] ] ] ) ` & _ z f.i.i.v.c.c.x.i.u.u.",
"s.u.u.g.g.g.x.g.u.d.X _ $ ] ] ] ] ] ] ] ] ] ] ] ] ] ) {   a I U W W a . ] T ] ] ] ] ] ] ] ] ] ] ] ] ` & E X f.i.u.k.k.k.j.i.u.u.",
"s.a.j.v.v.k.j.g.u.u.q.+ . # # # # # # # # # # # # # . #   . % % % % .   # # # # # # # # # # # # # # # . * 9.a.u.u.a.a.u.u.u.u.u.",
"u.u.u.j.j.u.u.u.u.u.u.V 8 _.'.+X#X#X#X#X@X X#X#X#X#X#X#X#X#X#X#X#X#X#X+X$X#X#X#X#X#X|.+X#X#X#X#X+X'.^.v M i.g.u.u.u.a.g.v.i.u.u.",
"u.u.u.u.s.u.i.i.u.u.u.0.v +XeXyXyXyXyXyXrX1XyXyXyXyXyXyXaXyXyXuXuXuXyXaXyXyXyXyXyXyX1XrXuXyXyXyXyX0X&XD 0.i.u.u.u.u.u.u.i.u.u.u.",
"u.u.u.g.g.u.a.a.u.u.u.0.v +XyXyXyXyXyXyX3X0XyXyXyXyXyXyXdXdXiXiXiXiXdXdXyXyXyXyXyXyX0X3XuXyXyXyXyXyX*XD 0.a.a.u.u.u.u.u.u.u.u.u.",
"u.u.j.v.n.v.k.u.u.u.u.7.v +XyXyXyXyXyXaX1XyXyXyXyXyXuXhXV.M.M.M.M.M.5.5.fXyXyXyXyXyXyX1XuXyXyXyXyXyX*XD t.i.i.v.c.u.u.u.u.u.u.u.",
"u.u.u.j.j.u.u.u.u.u.u.p.v +XyXyXaXyXyXaX1XyXyXyXyXyXiXJ 5 5 5 5 5 5 5 5 G pXyXyXyXyXyX1XuXyXyXyXyXyX*XD t.a.l.z.j.u.u.u.u.u.u.u.",
"u.u.u.u.u.u.u.u.a.g.u.0.v +XyXyXyXyXyXyX1XyXyXyXyXeXK 5 5 5 5 5 5 5 5 5 : K eXyXyXyXyX,XuXyXyXyXyXyX*XD t.u.u.u.u.u.u.u.u.u.u.u.",
"u.u.u.u.u.s.s.a.l.g.a.0.v +XyXyXyXyXyXyX1XyXyXyXyXqX+ ; 5 5 5 5 5 6 6 6 : + eXyXyXyXyX2XyXyXyXyXyXyX*XD t.u.u.i.j.k.k.v.i.u.u.u.",
"u.u.u.u.i.u.a.u.v.v.i.0.v +XyXyXyXyXsX2X0XyXyXyXyXqX+ ; ).)._.9 9 (.'.}.: + eXyXyXyXyX0X2XyXyXyXyXyX*XD 0.u.u.v.v.v.v.k.u.u.u.u.",
"u.u.u.i.v.v.g.u.k.z.a.0.v +XyXyXyXyXsX-XyXyXyXyXyXqX* * pXuX7XZ Z 4XyXfX: + eXyXyXuXuXuX>XyXyXyXyXyX*XD 0.u.u.k.k.k.j.u.u.u.u.u.",
"u.u.u.u.j.j.i.u.u.u.u.e.v +XyXyXyXyXuX-XyXyXyXyXyXqX+ ; 5.:XB.5 5 M.9X5.5 + 7XyXyXyXyXyX>XuXyXyXyXyX*XD t.u.u.u.u.u.u.s.s.u.u.u.",
"u.u.u.u.a.a.u.u.u.u.u.p.v +XyXyXyXyXsX-XyXyXyXiXiXyXXX; 5 L S XXXXF L ; + XXyXiXsXyXyXyX-XuXyXyXyXyX*XD t.u.u.u.u.u.u.u.u.u.u.u.",
"u.u.u.a.a.u.u.u.u.u.u.e.v OX6XyXyXyXsX-XyXyX0XZ.Z.wXpXXX5 5 6 B.B.6 5 +  XuXeXA.Z.7XyXyX-XuXyXyXyX6X+XD 0.u.u.u.u.u.u.g.u.u.u.u.",
"u.u.u.u.u.u.j.v.u.u.u.p.8 `.,XyXyXyXsX-XyXyX7XZ 6 N.gXyXXX9 5 5 5 : 9 OXyXgXB.6 l 5XyXyX-XuXyXuXyX,X].n 0.a.u.u.u.u.j.v.v.a.u.u.",
"u.u.u.g.m.m.m.k.i.a.s.t.v `.,XyXyXyXuX-XyX7X5.5 5 5 K fXhX<.).l 6 ).K gXgXK 5 5 5 K 6XyX;XyXyXuXyX,X[.n 0.a.u.i.v.m.m.k.g.u.u.u.",
"u.u.u.u.k.k.k.j.u.u.s.t.v /.,XyXyXyXsX-XyX7XZ 5 5 5 5 5.K %XqX$X$XqX$X<.<.5 5 5 5 f 4XyX-XaXyXuXyX,X[.n 0.a.u.u.j.k.k.u.u.u.u.u.",
"u.u.u.u.a.a.a.u.u.a.s.t.v `.=X3XyXyXsX;XyXeX@XOXOX}.9 9 5 N.C.5XwXZ.N.; 9 6 '.oXoXOXeXyX;XsXyXyX2X=X[.n 0.u.u.a.u.u.u.u.u.u.u.u.",
"u.u.u.a.u.u.u.u.u.u.a.t.8 /.OX>XyXyXaX-XyXyXyXpXeXrXoXXX5 5 6 B.B.6 : + }.oXpXpXpXuXyXyX-XyXyXyX-XoX`.n 0.u.u.u.u.g.g.u.u.u.u.u.",
"s.u.u.u.u.u.u.h.h.u.u.0.8 /..X-XrXyXaX-XyXyX7X5.M.5XtXG 5 5 5 2 2 5 5 5 G tX8XB.5.8XyXyX&XaXaXrX-X{.`.n 0.u.u.u.j.v.v.i.u.u.u.u.",
"u.u.u.i.i.u.g.v.v.u.s.0.8 /..X=X,XuXuXrX2XyX7XZ 5 J L 5 5 Z XX$X$XXXF 5 : L J 8 l 4XyX2XrXyXsX2X=X.X`.n 0.u.u.u.u.k.j.u.a.u.u.u.",
"u.u.j.v.c.g.u.z.l.u.u.0.8 ^.].oX-XdXyXuX,XyXyX%XS 5 5 * $X-XeXyXyXyX-X$X@ 5 5 l OXyXyX,XsXyXsX-XoX].`.n 0.u.u.u.u.u.u.u.u.u.u.u.",
"u.u.u.j.j.u.u.u.u.u.u.w.6 /.].|.=X2XuXsX1XyXyX7XF + 5 @XyXyXyXyXyXyXyXuX%X5 5 Z 7XuXyX2XsXsX2X=X].].[.n 0.u.a.g.v.v.k.u.u.u.u.u.",
"u.u.u.u.u.u.u.u.i.u.u.t.8 ).].].|.-X,X,XoX;X>X>X4X4X4XuXyXuXuXuXuXuXaXaXyX5X5X4X,X>X>XoX,X>X-X|.].].`.n w.i.a.g.k.g.a.s.u.u.u.u.",
"u.u.u.u.u.u.u.u.u.s.s.e.+ K /.{.{..X.X.X{.XX:X;X2X2X2X2X2X2X2X<X<X<X6X4X2X4X4X6X;X:XoX{..X.X.X'.'.).5.3 w.i.s.u.u.u.i.u.i.v.i.u.",
"u.u.u.u.u.u.u.u.g.u.f.b g @ Z A Z A A A A A G G G G G G G G G G G G G G G G G G G H F A A Z A A A Z o j 8 u.s.s.i.v.n.m.m.k.u.u.",
"u.u.a.a.u.u.u.u.g.u.s.V 5 < B < h U.. q ] =.W @.@.] *.O.t ` % u e # W p @.2.W @.@.W &.[ y   U.I + B , 0 9.u.u.u.u.j.j.j.j.u.u.u.",
"u.u.u.g.u.i.k.v.v.u.a.u.8.0.0.2 ] W.. U D.S.p s h [ F.-.P #.& d a & o.Y D.R.u p p p D.D.U . W.T 2 9.7.7.a.u.u.u.u.u.u.u.u.u.u.u.",
"u.u.j.v.c.v.c.k.k.u.a.g.s.u.t.< ] W.  ( G.g g s g e T.H.T ;.e ] ! w *./ T.p g g g g p 3.) . !.~ 3 0.u.u.a.u.u.u.u.s.s.u.u.u.u.u.",
"u.u.k.k.k.k.z.g.u.u.s.u.u.i.e.2 ] Q.. [ u g I E E j p T.^ 3.y ] [ e :.) u 0 E E E E y t | . W.) 2 0.u.g.u.u.v.u.u.u.u.u.u.u.u.u.",
"u.u.u.u.u.u.u.u.u.u.s.u.u.u.0.< ] Q.. { % s W E I h # K.o.u # a P # u o.3.# u E E u = } [ . W.T 2 7.u.u.u.a.j.u.u.u.u.u.u.u.u.u.",
"u.u.u.u.u.u.u.u.u.u.u.u.s.u.0.< ] Q.. { $ u E E E u # L.} & j e e h & ( Y.# # y k # % ;.(   W.~ 2 7.u.u.u.a.u.u.i.k.v.v.g.u.x.u.",
"u.u.u.u.u.u.u.u.u.i.v.j.s.u.0.< ] Q.. [ $ u u r u w . K.o.$ a U.Y.a # ..R.. 5 . . 5 = ;.(   W.[ 2 7.u.u.u.a.s.u.v.v.j.j.u.u.u.u.",
"u.u.u.u.u.u.u.u.u.i.k.h.s.g.0.< ] ~.. ( | e e u y $ _ L.} $ u +.#.u - @.K.s g ` ' s _ S.( . W.[ 2 7.u.u.u.u.s.u.j.j.u.u.u.u.u.u.",
"u.u.u.u.u.v.m.m.m.v.u.u.u.g.0.2 ` !.. ] S.` $ . # p G.K.( &.y a P q &.o.K.& % w = # u :.] $ Q.] 2 7.u.u.u.u.u.u.u.u.u.u.u.u.u.u.",
"u.u.u.u.i.k.n.n.m.k.u.u.u.g.0.+ d ~.U.e S.;.a ] ] ( K.P. .S.! w = ] S. .K.. ,.,.,.,.> 3.q 3.Q.a * 7.u.u.u.u.u.u.u.u.u.u.u.u.u.u.",
"u.u.u.u.u.u.j.k.k.u.a.u.u.g.e.< p ;.I.$ :.D.o.D.D.X.K.P.( S.+.&.=.$.S.( F.. 4.' ' 4.y *.# E.D.p + 7.u.u.u.u.u.u.u.u.u.u.u.u.u.u.",
"u.g.x.x.a.a.u.u.u.u.u.u.u.u.0.< % @.P.=.] :.+.S.S.X.R.K. .D.+.K.K.-.S.) R.. 4.1.1.6.: s &.K.#.& , 7.a.g.v.v.g.u.u.u.s.u.u.u.u.u.",
"u.u.j.j.u.u.u.u.u.u.u.i.x.u.0.< > & +.R.:.s [ S.H.X.R.L. .:.p e w u D. .Y.. = = > : & *.L.+.& = + 8.u.g.k.k.g.u.u.g.g.g.x.u.u.u.",
"u.u.s.s.u.u.u.u.u.u.u.u.j.u.0.< y   P $.H.*.e p 3.$.E.E.( u = 2.;.& y [ E.:.>.2.# . &.K.$.P   k < 0.i.u.u.a.u.u.i.v.c.c.k.u.u.u.",
"u.u.u.u.u.u.u.u.u.u.u.a.u.u.y.B * = # Y %.K.:.*.p q p u [ w *.P.P.:.w } p p u g *.;.K.-.Q # w * B p.u.u.u.s.i.u.a.z.k.j.l.u.u.u.",
"u.u.j.v.g.u.u.u.a.a.a.u.u.u.u.8., k p . P +.X.R.J.Y.T.U.$ = R.I.I.R.w % 3.J.U.Y.K.%.+.E $ E u , 8.s.u.u.u.s.s.u.u.u.u.u.u.u.u.u.",
"u.u.u.k.c.v.l.u.u.i.b.i.u.u.u.7.C . u g # & P #.X.X...P.T.& O.L.L.#.e 2.R.X.X.+.+.U w & h p . m 7.u.u.u.u.j.u.u.u.u.u.u.u.u.u.u.",
"u.u.u.u.l.k.c.v.i.i.i.u.u.u.u.u.9.X . d ! E % % p Q U +.$.% d $.%.a % @.$.U P p q % E ` a # X 9.s.s.u.i.v.m.v.i.i.u.u.u.u.u.u.u.",
"l.u.u.s.u.u.j.z.a.u.u.u.u.u.u.s.7.V X e I ] W E = & & w e . e U U y . e e % % % I W ] U y X B r.u.u.u.i.j.j.j.v.v.g.u.u.u.u.u.u.",
"u.u.u.u.u.u.u.u.u.u.u.u.u.u.u.u.y.0.V + u a U [ W W W E W # e R R e . I I I Q W ] U a e o B 0.p.u.u.i.u.u.u.u.z.z.g.u.u.g.u.u.u.",
"a.j.x.x.i.u.u.u.u.u.u.u.u.u.g.u.s.p.0.B + * r a U ] [ [ #.# e [ [ e # [ / ( ) I p u # + x 7.p.s.u.u.a.a.u.u.u.u.u.a.a.a.i.k.i.u.",
"u.u.k.k.u.u.u.u.u.u.u.u.u.v.v.g.u.s.y.7.V B o # e t t u p . e [ [ e . p p p t e # - B V 7.y.u.u.i.i.u.u.u.u.u.u.u.i.i.u.v.k.u.u.",
"u.u.a.a.u.i.i.x.u.u.u.u.u.j.k.u.h.h.u.u.p.7.V B < o o o o . e ] [ y . . o . . O m N 7.p.y.a.u.u.j.v.v.j.u.u.u.u.j.v.v.v.k.a.u.u.",
"u.u.u.a.l.v.v.k.u.u.u.u.u.u.u.u.v.m.u.s.s.y.y.7.M N B N N x * d d * x B B B B N 7.p.y.u.u.a.u.u.u.j.k.u.u.u.u.u.u.j.j.k.u.u.u.u.",
"u.u.u.u.u.k.k.u.u.u.u.u.u.u.u.u.k.k.u.u.u.u.a.s.y.y.r.7.r.8.x + + x 8.7.7.r.u.u.u.a.v.v.u.a.u.u.u.a.u.u.u.u.u.u.u.u.u.u.u.u.u.u.",
"u.u.u.u.u.i.i.u.u.u.u.u.u.u.u.u.u.u.u.u.u.u.u.s.a.s.p.p.p.p.p.0.9.p.p.p.p.p.i.u.s.u.i.i.u.a.u.u.u.u.s.u.u.u.u.u.u.a.a.a.u.u.u.u."
};
