/* XPM */
static char *_c5a0679ee364e4b9022aecdb0675281HRTNsVTz4BmLCm4c[] = {
/* columns rows colors chars-per-pixel */
"64 64 230 2 ",
"   c #1D120D",
".  c #1C1412",
"X  c #1B161B",
"o  c #1C1C1D",
"O  c #181715",
"+  c #230E09",
"@  c #24130C",
"#  c #2B170F",
"$  c #28170B",
"%  c #35190D",
"&  c #241613",
"*  c #2A1613",
"=  c #261912",
"-  c #2C1A13",
";  c #251A1B",
":  c #2C1C1B",
">  c #241719",
",  c #341C14",
"<  c #3A1D14",
"1  c #3B1D19",
"2  c #321A14",
"3  c #2E251B",
"4  c #372116",
"5  c #3C2215",
"6  c #33211B",
"7  c #3C231A",
"8  c #3A2A1D",
"9  c #35291C",
"0  c #1B1D23",
"q  c #1C1E2B",
"w  c #171D29",
"e  c #191F31",
"r  c #151E32",
"t  c #241D23",
"y  c #1B222D",
"u  c #1A2228",
"i  c #16253B",
"p  c #1B263A",
"a  c #1B2B3E",
"s  c #1A2433",
"d  c #27222A",
"f  c #3C2D25",
"g  c #3B2D29",
"h  c #372622",
"j  c #262938",
"k  c #3F302A",
"l  c #401F15",
"z  c #432215",
"x  c #4C2415",
"c  c #4B2916",
"v  c #44261A",
"b  c #4B261B",
"n  c #442A1C",
"m  c #4D2A1B",
"M  c #462A16",
"N  c #542A16",
"B  c #532B1C",
"V  c #5B2C1C",
"C  c #532718",
"Z  c #5B321D",
"A  c #54311D",
"S  c #43220F",
"D  c #622E1C",
"F  c #64321D",
"G  c #6B341D",
"H  c #68371C",
"J  c #72361C",
"K  c #753B1E",
"L  c #7D3D1C",
"P  c #7C3917",
"I  c #472B23",
"U  c #532D21",
"Y  c #5A2F25",
"T  c #463423",
"R  c #5C3322",
"E  c #553625",
"W  c #633322",
"Q  c #6B3422",
"!  c #6D3823",
"~  c #693C25",
"^  c #733C22",
"/  c #793D24",
"(  c #622F22",
")  c #7B411F",
"_  c #7C4324",
"`  c #764327",
"'  c #794632",
"]  c #6E4732",
"[  c #524024",
"{  c #1D2D45",
"}  c #182B47",
"|  c #1B334B",
" . c #1B3554",
".. c #1C365A",
"X. c #1D3A5C",
"o. c #1B3856",
"O. c #28344A",
"+. c #243B5B",
"@. c #202D42",
"#. c #173D66",
"$. c #1A3D67",
"%. c #173D69",
"&. c #1A3D69",
"*. c #174069",
"=. c #1C426C",
"-. c #1A4269",
";. c #1D4571",
":. c #1E4A74",
">. c #1F4C79",
",. c #21456E",
"<. c #214671",
"1. c #214974",
"2. c #305376",
"3. c #2F405B",
"4. c #545352",
"5. c #5F5F65",
"6. c #7D7B73",
"7. c #716B66",
"8. c #706057",
"9. c #833D1B",
"0. c #84421D",
"q. c #8C431C",
"w. c #95491D",
"e. c #9B501F",
"r. c #A04F1D",
"t. c #834425",
"y. c #8A4523",
"u. c #8A4A23",
"i. c #844A2A",
"p. c #8D4B2A",
"a. c #854827",
"s. c #934B24",
"d. c #924B29",
"f. c #9D4E22",
"g. c #9A5227",
"h. c #935134",
"j. c #867E74",
"k. c #88837A",
"l. c #275A89",
"z. c #215B91",
"x. c #335F8B",
"c. c #2B638A",
"v. c #38668C",
"b. c #3B6A93",
"n. c #346593",
"m. c #2D679A",
"M. c #1F578E",
"N. c #466A87",
"B. c #55768D",
"V. c #466D92",
"C. c #4B7497",
"Z. c #557A9A",
"A. c #4C738B",
"S. c #627A94",
"D. c #547BAD",
"F. c #5B819E",
"G. c #6A8497",
"H. c #798B9C",
"J. c #5980A0",
"K. c #6C8DA4",
"L. c #668AA5",
"P. c #748CA3",
"I. c #6C91A9",
"U. c #7A95A8",
"Y. c #6E94B5",
"T. c #968E85",
"R. c #959087",
"E. c #8A9A9F",
"W. c #A89E94",
"Q. c #A89A8D",
"!. c #ADA498",
"~. c #B3A49B",
"^. c #B5AA9E",
"/. c #BAAC9D",
"(. c #BCA89B",
"). c #B3A087",
"_. c #869BA6",
"`. c #859CB4",
"'. c #929EAD",
"]. c #8AA2AE",
"[. c #89A4AE",
"{. c #93A2AC",
"}. c #9CA4A9",
"|. c #8BA5B4",
" X c #94ACBA",
".X c #96AAB4",
"XX c #9BB1BD",
"oX c #B9AFA1",
"OX c #B6AEA3",
"+X c #BBB5A6",
"@X c #A8B6B9",
"#X c #B8BAB7",
"$X c #A8B0AE",
"%X c #C2AC9E",
"&X c #C3B7A6",
"*X c #C7BEB3",
"=X c #BBC3BB",
"-X c #C6C1B3",
";X c #CBC4B6",
":X c #D4C9B8",
">X c #DCD5BE",
",X c #CDC0AF",
"<X c #E1D2BC",
"1X c #93AEC4",
"2X c #A7B6C3",
"3X c #A0AEC4",
"4X c #B8C5C7",
"5X c #B7C9CE",
"6X c #C4CAC9",
"7X c #CCD3CA",
"8X c #DCD5C3",
"9X c #D7D8CA",
"0X c #CCD4D3",
"qX c #D8DAD3",
"wX c #CECCC9",
"eX c #E4DDCB",
"rX c #E4DAC7",
"tX c #E6DED1",
"yX c #DBE1D8",
"uX c #DEE0CF",
"iX c #E6E1CD",
"pX c #EBE4CD",
"aX c #E8E2C7",
"sX c #E6E4D4",
"dX c #EAE5D3",
"fX c #ECE9DA",
"gX c #E8E7D8",
"hX c #F0E6D2",
"jX c #E9EBE5",
"kX c #E8F0E8",
/* pixels */
"$.$.$.$.$.$.$.$.$.$.$.$.$.$.$.$.$.$.$.$.$.$.$.$.$.$.$.$.$.%.&.$.$.$.&.$.$.&.$.&.&.$.$.$.$.$.$.$.$.$.$.$.$.$.$.$.$.$.$.$.$.$.$.$.",
"$.$.$.$.$.$.$.$.$.$.$.$.$.$.&.$.$.$.$.$.$.$.$.$.=.=.-.&.&.$.X.} X.&.$.$.%.$.$.$.$.$.$.$.$.$.$.$.$.$.$.$.$.$.$.$.$.$.$.&.-.$.$.$.",
"%.=.;.&.#.&.=.&.$.$.$.$.$.=.;.;.&.$.$.$.$.$.$.$.-.=.-.&.&.X.j I d p p $.$.} i p  .$.$.$.&.<.=.-.=.$.$.$.$.$.$.$.&.$.$.&.-.$.$.$.",
"&.=.;.;.=.=.=.&.$.$.$.$.&.=.;.=.=.=.=.&.$.$.$.$.$.$.$.&.&...t ^ 2 7.6.O.a 5.6.4.{ $.$.$.&.,.=.=.-.&.$.$.$.$.-.=.-.$.$.$.$.$.$.$.",
"$.$.$.=.=.=.&.&.$.$.$.$.$.$.$.&.=.;.;.&.$.$.$.$.#.$.&.$.%...t K : -X4X2.| P.0X6.{ #.$.$.$.$.&.-.$.$.$.$.$.&.-.=.-.$.$.$.$.$.$.$.",
"$.$.$.$.$.$.$.$.$.$.$.$.$.$.$.$.$.$.$.$.$.$.$.-.=.-.&.$.%...t K : -X3X`.D.Y.6X6.@.&.$.$.$.$.$.$.$.$.$.$.$.&.&.#.$.$.$.$.$.$.$.$.",
"$.$.$.$.$.$.$.$.$.$.$.$.$.$.$.$.$.$.$.$.$.$.$.-.=.-.&.$.%.o.t ^ : *XtXaX2X6XsX6.{ $.$.$.$.$.$.$.$.$.$.$.$.$.$.$.$.#.#.&.-.$.$.$.",
"$.$.$.$.$.$.$.-.=.&.&.$.-.&.$.$.$.$.$.&.$.$.$.$.$.$.$.$.&.} ; K - R.!.8XiX#X!.5.{ $.$.&.&.$.$.&.-.-.$.$.$.$.$.$.$.&.=.=.=.&.$.$.",
"$.$.$.$.$.$.$.;.:.=.&.-.=.-.$.$.$.$.&.&.&.$.$.$.$.$.%.&.O.6 % ^ # : & W.+X4.w w | &.$.-.=.*.=.=.=.<.$.$.$.$.$.$.$.=.:.;.&.$.$.$.",
"$.$.$.$.$.$.$.$.$.:.>.:.-.$.$.$.$.$.<.1.-.$.$.$.$.$.&.O., ] % E - ] v & 0 | $.$.$.$.$.$.-.:.:.=.%.$.$.$.$.$.$.$.$.$.#.$.$.$.$.$.",
"#.#.$.&.&.$.$.$.$.$.&.&.$.$.$.$.$.$.&.&.&.$.$.$.$.$.$.. i.% * I & + G 2 { $.&.&.&.$.$.$.$.&.&.&.&.$.$.$.$.$.$.$.$.$.$.$.$.$.$.$.",
"$.&.,.1.=.=.&.&.&.$.$.$.%.$. .+.+.o. .o.o. .o.o.o.o. .. ' R 7 , 1 Y _ 2 a .. . . . .o.o.o.o. ...3.o...&.$.$.&.&.$.$.$.$.-.$.$.$.",
"$.$.$.-.:.1.&.&.$.$.$.$.X.j ; ~ U ; ; : : : : : : : : : + ^ p.p.p.t.1 * : : : : : : : : : ; - 7 ' 2 d o.#.$.=.=.-.=.=.=.<.$.$.$.",
"$.$.$.$.$.$.$.$.$.$.$.$.} I W ^ G K u.u.u.u.u.u.u.u.u.' + - 5 S v < & ] a.a.u.u.u.u.u.u.u.a.K D ) ! ] s $.&.$.=.:.:.1.;.&.$.$.&.",
"$.$.$.$.$.$.$.$.$.$.$.$.$.j & U T g g g g f g g g g g g h I B W V m f f f g f f f f f f g g g g E = d ..$.$.$.$.$.&.&.&.$.$.$.$.",
"$.$.$.$.&.&.&.&.$.$.$.$.&.$.q 6.oXoXoXoXoX!.^.oXoXoXoXoX+X: * = = & T.OXoX/.oXoXoX^.W./././.oXoXQ.0 ..$.&.$.$.$.$.$.$.$.$.$.$.$.",
"$.$.$.$.$.$.$.$.$.$.$.$.$.&.e T.iXiXiXaXtX8X8XiXiXiXiXiXdX!.!.T.W.!.8XeXiXsXiXiXiXrX:XsXsXiXsXiX*X0 &.$.&.$.$.$.$.$.$.$.$.$.$.$.",
"$.-.1.*.#.#.#.1.1.&.$.$.$.$.e R.sXdXdXsXdXrXiXfXfXfXfXdXdXdXiX:XtXdXdXdXhXfXfXfXfXdX8XpXpXdXsXsX-X0 &.$.&.$.$.$.$.$.$.-.1.<.&.$.",
"$.$.*.:.>.>.>.=.*.#.$.$.$.$.e R.dXdXdXdXgX_.n.b.b.b.B.jXpXdXsX:XdXdXpXfXU.b.b.b.b.b.P.sXdXsXdXdX-X0 &.$.&.&.&.&.$.$.$.&.&.&.$.$.",
"$.$.$.&.-.-.-.&.$.$.$.$.$.&.e R.dXdXdXsX].c.z.z.z.z.l.A.sXdXsX:XdXpXgXG.n.z.z.z.z.z.n.U.dXgXdXdX-X0 &.$.&.=.:.:.=.$.$.$.$.$.$.$.",
"$.$.$.$.$.$.&.$.$.$.$.$.$.&.e R.dXpXdX_.n.l.].@X@X@X Xl.C.yXpX:XiXjXU.l.Y.#X@X@X@X Xc.m.U.dXdXdX-X0 &.$.&.=.=.=.&.$.$.$.$.$.$.$.",
"$.$.$.$.$.$.$.$.$.$.$.$.$.&.e R.dXdXgXF.z.Z.7XdXdXdXqX X>.`.qX:XsX.Xn.U.wXdXdXdXdXqXG.M.C.gXdXdX*Xo &.$.&.&.&.&.&.$.$.$.$.$.$.$.",
"$.$.$.$.$.$.$.$.$.$.$.$.$.&.e R.dXdX.Xb.U.;XeXdXpXpXdXdX2Xv.G.=XH.l.[.uXdXfXdXpXpXiX;X|.v._.dXdX-Xo &.$.&.&.$.$.$.$.$.$.$.$.$.$.",
"$.$.$.$.$.$.=.=.&.$.=.&.$.&.e R.dXdXJ.L.6X8XiXdX7X'.{.pXjXU.V.$XN.I.7XdX@X_.=XdXdXiX8X9XY.C.sXdX-Xq &.$.&.&.$.$.$.$.$.$.&.$.$.$.",
"$.$.$.$.$.$.=.=.=.=.=.$.$.&.e R.dXdXF.@XdX>XeXyX].|.|.E.gXeX.X_.].9XdX.X_.|.].4XdXaX>XpX5XA.dXdX-X0 &.$.&.*.=.&.&.$.&.-.&.$.$.$.",
"$.$.$.$.$.$.#.#.=.=.&.$.$.$.e k.eXdXF.@XsX8XtX0XG.uX9Xl. X X[.v.`.{.|.b..XpXP..XdXiX9XdX5XV.dXdXOX0 &.$.&.-.=.;.;.;.;.=.$.$.$.$.",
"$.$.$.$.$.$.$.$.&.$.$.$.$.&.e k.8XdX.X6XdX>XeX9X].1X|.H.K.P.I.G.P.K.I.K.'.1XU.#XdXiX8XdX7X_.dXeX!.0 &.$.&.$.=.;.;.;.=.&.$.$.$.$.",
"$.$.$.$.$.$.$.$.$.$.$.$.$.&.s j.8XdXsXpXdX>XiXpX0X].`.pXsXpXaX:XsXdXpXdX@X`.4XdXpXiX8XdXdXsXdXeX!.o &.$.&.$.$.$.$.$.$.$.$.$.$.$.",
"$.$.$.$.$.$.$.$.$.$.$.$.$.&.e j.>XiXdX4X0X<X7X#XdX9X2XpXfX2X@X{.XXrX#X9X4XwXdX7X6X;X{. X@XdXdXrX!.o &.$.&.$.$.$.$.$.$.$.$.$.$.$.",
"$.&.,.&.$.&.-.&.$.$.$.$.$.&.e j.;X>XdXZ.I.#XU.N.9XU.x.XXkXx.L.I.c.5XZ.4XK.I.0X|.{.`.C.I.|.sXdX:X~.o &.$.&.$.$.$.$.$.$.$.$.$.$.$.",
"$.&.=.=.=.=.<.&.$.$.$.$.&.&.e j.,X>XdXZ.l.K.v.V.4Xb.Z.2.kXv.XX2Xv.7XZ.4XK.b.[.I.[.`.K.#XqXaXrX,XW.0 $.&.$.$.$.$.$.$.$.$.$.$.$.$.",
"$.$.&.=.:.<.&.&.$.$.$.$.&.&.e 7.&X:XrXZ.b.n.b.b.5XC.1Xl.kXx.C.c.Z.qXZ.4XP. XU.z.[.`.b.B.4XrX:X&XT.0 X.$.$.$.$.-.&.$.$.&.-.-.$.$.",
"$.$.$.$.$.$.$.$.$.$.$.&.$.$.i 7.^.,X;XZ._.H._.V.2XV.v.c.yXN.6XB.4XsXZ.4XK. X_.c.`._.U.0XwX:X:X&Xk.s X.$.$.&.$.=.=.&.=.=.:.=.&.$.",
"$.$.$.$.$.$.$.$.$.$.$.&.$.&.$.s 7.&X;XP.}.oX}.G.H.#X#XC.{.S.#X}.S.#XG.$XH.}.;X_.'._.V.C.G.;X*XT.y +.%.$.$.&.$.$.=.:.:.;.&.$.$.$.",
"$.$.$.$.$.$.$.$.$.$.$.$.&.%.X.d 8.Q.%X~.(.).~.^./.%X%X^./.~.(.Q.~.(.~.(.^.(.%X(./.~.Q.~.~./.(.j.d o.&.#.$.$.$.$.$.&.&.&.&.$.$.$.",
"$.$.$.$.$.$.$.$.$.$.$.&.&.+.e R m 6 D F W G W Q G G G G G G Q W W Q Q G G G G G G G G G Q G m : ] o X.$.&.&.$.$.$.$.$.$.$.$.$.$.",
"$.$.&.&.$.$.$.$.$.$.$.$.$.&.$.s . . +   . @ . @                                     @ . . +   O o +.&.$.$.$.$.$.$.$.$.$.$.$.$.$.",
"$.-.1.:.&.$.$.$.&.$.<.=.&.$.$.$.X.p ` c z D V Q D W D ! V V % U C @ B V Q D W ( ! V F m < h.o X.X.#.&.$.&.&.$.$.$.$.$.$.$.$.$.$.",
"$.$.&.&.$.$.$.;.:.1.&.&.$.$.&.$...e / c B y.9._ = 5 ` f./ q.6 ^ G * / P d.B * * R 0.p.H 4 s.X ..$.$.$.$.$.$.$.=.1.=.$.$.$.$.$.$.",
"$.$.$.$.$.&.$.&.&.&.&.&.$.$.$.$.} > _ c N y.~ 7 g I z d.9.w.5 K G * _ ^ R f g k I B p.G 4 p.* p $.&.$.$.$.$.$.-.-.$.$.$.$.$.$.$.",
"$.$.$.$.$.$.$.$.$.$.$.$.$.$.$.$.a E p.v N G - 3 8 h 6 , / u.5 ^ Q * _ x 3 h 8 8 h : B G , g.' y ,.$.$.$.$.$.$.$.$.$.$.$.$.$.$.$.",
"$.$.$.$.$.$.$.$.$.$.$.$.$.$.$.$.a F 0.5 B Z . = , 7 & @ L s.B % # b a.x O 7 6 4 9 . v W 2 9.u.y &.$.$.$.$.$.$.$.$.$.$.$.$.$.$.$.",
"&.$.$.$.$.$.$.$.$.$.$.$.$.$.$.$.p W L 1 B _ E @ < 1 & _ L u.z W Q < _ J 7 < 1 1 2 1 _ Q - L a.q $.&.$.$.$.$.-.-.&.&.&.-.=.$.$.$.",
"&.$.$.$.$.$.$.$.$.&.$.$.$.$.=.&.p W L 1 N q.L ` ) _ G f.9.u.< F G # _ 9.t.G K G ^ K s.Q - L a.q $.<.$.$.$.$.&.=.:.;.;.;.=.$.$.$.",
"$.&.,.&.$.$.$.=.;.$.$.$.$.$.&.$.p W L < N u.J z 5 B t.r.L t.2 v z & H 9.e.F 5 5 v v Z Q # L i.q $.=.$.$.$.$.$.-.=.=.=.&.&.$.$.$.",
"$.&.=.=.=.=.;.=.=.&.$.$.$.$.$.$.i F y.z V _ c N A B V g.L a.m 2 - z ` L r.B 6 T T 8 v G , q.a.q $.$.$.$.$.$.$.$.$.$.$.$.$.$.$.$.",
"$.$.$.=.;.;.=.%.$.$.$.$.$.$.$.$.i N s.M Z ! - W K Z # g.K e.0.V R K e.L f.N f T T f v ! , e.^ u &.$.$.$.$.$.$.$.$.$.$.$.$.$.$.$.",
"$.$.$.&.&.&.&.&.$.$.$.$.$.$.$.$.p , t.G c m - G 9.Z * f.) Z U c B m B G f.m f [ E T 4 b D u.l y $.$.$.$.$.$.$.$.$.$.$.$.$.$.$.$.",
"$.$.$.$.$.$.$.$.$.$.$.$.$.$.-.$.p ; ! y.x v 5 N W B m g.N m m c m A v b 0.m 3 8 n 9 - , y.) * u $.-.$.$.$.$.$.$.$.$.$.$.$.$.$.$.",
"$.$.$.$.$.$.$.$.$.$.$.$.$.$.,.-.p : c t.G n B v 7 c / h.+ _ s.0.y.s.L 7 Z G m c B 7 2 B p.C 6 u -.<.$.$.$.#.$.$.$.$.$.$.$.$.$.$.",
"$.$.$.$.$.$.$.$.$.$.$.$.$.$.-.=.{ * 2 ~ u.D F s.0.s.q.g.  R ! F F ! V ; Z q.u.q.s.V V u._ < = u =.=.$.$.$.&.-.$.$.$.$.&.&.$.$.$.",
"$.$.$.&.=.=.%.$.$.$.$.$.$.$.$.-.a   5 c K d.Z Z F u.9.g.@ , , 4 , , 5 & Z q.w.G R D p.0.C v . y =.$.$.$.$.=.;.=.=.$.&.=.-.$.$.$.",
"$.$.$.&.;.;.=.=.$.$.=.&.$.$.$.-.| X < < m 0.p.n B H F i.% R b b b b F 7 Z G W B B u.y.V , z X a ;.$.$.$.$.%.=.:.;.=.=.=.$.$.$.$.",
"$.$.$.$.&.&.=.:.=.=.1.-.$.$.$.$.$.d = b x Y q.w.a.c z U 1 m = < 5 > b b b b v _ s.y.W 1 B = w $.$.$.$.$.$.$.$.&.=.<.=.#.$.$.$.$.",
"$.$.$.$.$.$.$.#.;.1.-.&.$.$.$.&.%.{ o n V < Z G w.s.i.# < = # a.g., - - % ` d.s.G Z < C B . i &.&.$.$.$.$.$.$.$.$.$.$.$.$.$.$.$.",
"$.$.$.$.$.$.$.$.#.#.#.$.$.$.$.=.=.$.y - N B * 2 Z G s.d.p.i.5 a.s., / s.d.p.^ R 2 * m V < 0 +.=.<.&.$.$.$.$.$.$.$.$.$.$.$.$.$.$.",
"$.$.$.$.$.$.$.$.$.$.$.$.$.$.$.&.-.=.p X , B V B - 1 V B V B = B V * b V V V , , U V V l O s $.&.&.$.$.$.$.$.$.$.$.$.$.$.$.$.$.$.",
"$.$.&.#.$.$.$.$.$.$.$.$.$.$.$.$.$.&...i . , V V V b * * * & . - - . & & & * b V D V l & r o.&.&.$.$.$.$.$.$.$.$.$.$.$.$.$.$.$.$.",
"$.&.,.&.$.$.$.$.$.$.$.$.$.$.$.$.$.&.$.X.s o z B D ( U V B m 2 ^ Q * v B B V V V x 5 > q X.$.-.=.$.$.$.$.&.-.$.$.$.$.$.$.$.$.$.$.",
"$.$.-.=.&.&.&.<.&.$.$.$.$.$.$.$.$.=.-.%.X.| w ; z v Y W F U % K J = B W W R z 7 > w } X.%.&.<.$.$.$.$.=.1.1.=.&.&.$.$.$.&.&.$.$.",
"$.$.$.-.<.1.;.-.$.$.$.$.$.$.$.$.$.$.=.1.=.%.X.{ 0 o ; 7 z 5 # / J 2 < z 5 - o w { X.$.=.<.,.&.$.$.$.$.#.&.&.=.1.=.%.&.=.,.$.$.$.",
"$.$.$.$.&.&.&.$.$.$.$.$.$.$.#.$.$.$.&.&.;.:.&.$.o. .{ 0 > X ; ~ J ; X > X s | o.$.%.:.1.&.&.$.$.$.$.$.$.$.#.&.&.=.:.:.;.&.$.$.$.",
"$.$.$.$.$.$.$.$.$.$.$.&.;.1.:.=.$.$.$.&.&.-.:.:.;.%.$.o. .} { : - p }  . .$.#.;.:.:.-.&.$.$.$.$.$.$.$.$.$.$.$.$.&.=.=.&.&.$.$.$.",
"$.$.$.$.$.$.$.$.$.$.$.$.&.-.-.&.$.$.$.$.$.$.-.-.&.$.$.&.&.#.$.o.o.$.#.&.&.%.$.&.-.-.$.$.$.$.$.$.$.$.$.$.$.$.$.$.$.$.$.$.$.$.$.$."
};
